<?xml version="1.0" standalone="no"?>
 <!DOCTYPE svg PUBLIC "-//W3C//DTD SVG 1.1//EN" 
 "http://www.w3.org/Graphics/SVG/1.1/DTD/svg11.dtd"> 
<svg
  xmlns:svg="http://www.w3.org/2000/svg"
  xmlns="http://www.w3.org/2000/svg"
  xmlns:xlink="http://www.w3.org/1999/xlink"
  version="1.1"
  width="297.0022mm" height="210.0072mm" viewBox="0.0000 0.0000 297.0022 210.0072">
<title>SVG Image created as sadcatz40-NPTH-drl-drl_map.svg date 2023/12/10 13:03:43 </title>
  <desc>Image generated by PCBNEW </desc>
<g style="fill:#000000; fill-opacity:1.0000;stroke:#000000; stroke-opacity:1.0000;
stroke-linecap:round; stroke-linejoin:round;"
 transform="translate(0 0) scale(1 1)">
</g>
<g style="fill:#000000; fill-opacity:0.0; 
stroke:#000000; stroke-width:0.0000; stroke-opacity:1; 
stroke-linecap:round; stroke-linejoin:round;">
</g>
<g style="fill:#000000; fill-opacity:0.0; 
stroke:#000000; stroke-width:0.1200; stroke-opacity:1; 
stroke-linecap:round; stroke-linejoin:round;">
<path d="M31.6316 5.3810 A7.2003 7.2003 0.0 0 0 24.5408 11.3309" />
<path d="M10.1696 92.8343
L24.5408 11.3309
" />
<path d="M126.4791 120.6541
L16.0101 101.1754
" />
<path d="M280.9924 101.1754
L170.5234 120.6541
" />
</g>
<g style="fill:#000000; fill-opacity:0.0; 
stroke:#000000; stroke-width:0.2400; stroke-opacity:1; 
stroke-linecap:round; stroke-linejoin:round;">
<path d="M166.7138 5.3008
L265.3708 5.3810
" />
</g>
<g style="fill:#000000; fill-opacity:0.0; 
stroke:#000000; stroke-width:0.1200; stroke-opacity:1; 
stroke-linecap:round; stroke-linejoin:round;">
<path d="M10.1694 92.8343 A7.2001 7.2001 0.0 0 0 16.0101 101.1754" />
</g>
<g style="fill:#000000; fill-opacity:0.0; 
stroke:#000000; stroke-width:0.2400; stroke-opacity:1; 
stroke-linecap:round; stroke-linejoin:round;">
<path d="M130.1368 5.3009
L31.6316 5.3810
" />
</g>
<g style="fill:#000000; fill-opacity:0.0; 
stroke:#000000; stroke-width:0.1200; stroke-opacity:1; 
stroke-linecap:round; stroke-linejoin:round;">
<path d="M169.2731 120.7635
L127.7294 120.7635
" />
<path d="M280.9924 101.1755 A7.2006 7.2006 0.0 0 0 286.8329 92.8343" />
<path d="M272.4616 11.3309
L286.8329 92.8343
" />
<path d="M169.2731 120.7634 A7.2011 7.2011 0.0 0 0 170.5234 120.6541" />
<path d="M272.4615 11.3309 A7.1998 7.1998 0.0 0 0 265.3708 5.3810" />
<path d="M126.4791 120.6541 A7.1968 7.1968 0.0 0 0 127.7294 120.7635" />
</g>
<g style="fill:#000000; fill-opacity:0.0; 
stroke:#000000; stroke-width:0.4800; stroke-opacity:1; 
stroke-linecap:round; stroke-linejoin:round;">
</g>
<g style="fill:#000000; fill-opacity:0.0; 
stroke:#000000; stroke-width:0.0960; stroke-opacity:1; 
stroke-linecap:round; stroke-linejoin:round;">
<path d="M138.9451 20.2533
L139.9051 21.2133
" />
<path d="M139.9051 20.2533
L138.9451 21.2133
" />
<path d="M156.9455 20.2533
L157.9056 21.2133
" />
<path d="M157.9056 20.2533
L156.9455 21.2133
" />
</g>
<g style="fill:#000000; fill-opacity:0.0; 
stroke:#000000; stroke-width:0.4800; stroke-opacity:1; 
stroke-linecap:round; stroke-linejoin:round;">
</g>
<g style="fill:#000000; fill-opacity:0.0; 
stroke:#000000; stroke-width:0.2000; stroke-opacity:1; 
stroke-linecap:round; stroke-linejoin:round;">
<text x="12.0000" y="124.0235"
textLength="14.8667" font-size="2.6667" lengthAdjust="spacingAndGlyphs"
text-anchor="start" opacity="0">Drill Map:</text>
<g class="stroked-text"><desc>Drill Map:</desc>
<path d="M12.6078 123.9383
L12.6078 121.9383
" />
<path d="M12.6078 121.9383
L13.0840 121.9383
" />
<path d="M13.0840 121.9383
L13.3697 122.0335
" />
<path d="M13.3697 122.0335
L13.5602 122.2240
" />
<path d="M13.5602 122.2240
L13.6554 122.4145
" />
<path d="M13.6554 122.4145
L13.7506 122.7955
" />
<path d="M13.7506 122.7955
L13.7506 123.0812
" />
<path d="M13.7506 123.0812
L13.6554 123.4621
" />
<path d="M13.6554 123.4621
L13.5602 123.6526
" />
<path d="M13.5602 123.6526
L13.3697 123.8431
" />
<path d="M13.3697 123.8431
L13.0840 123.9383
" />
<path d="M13.0840 123.9383
L12.6078 123.9383
" />
<path d="M14.6078 123.9383
L14.6078 122.6050
" />
<path d="M14.6078 122.9859
L14.7030 122.7955
" />
<path d="M14.7030 122.7955
L14.7982 122.7002
" />
<path d="M14.7982 122.7002
L14.9887 122.6050
" />
<path d="M14.9887 122.6050
L15.1792 122.6050
" />
<path d="M15.8459 123.9383
L15.8459 122.6050
" />
<path d="M15.8459 121.9383
L15.7506 122.0335
" />
<path d="M15.7506 122.0335
L15.8459 122.1288
" />
<path d="M15.8459 122.1288
L15.9411 122.0335
" />
<path d="M15.9411 122.0335
L15.8459 121.9383
" />
<path d="M15.8459 121.9383
L15.8459 122.1288
" />
<path d="M17.0840 123.9383
L16.8935 123.8431
" />
<path d="M16.8935 123.8431
L16.7982 123.6526
" />
<path d="M16.7982 123.6526
L16.7982 121.9383
" />
<path d="M18.1316 123.9383
L17.9411 123.8431
" />
<path d="M17.9411 123.8431
L17.8459 123.6526
" />
<path d="M17.8459 123.6526
L17.8459 121.9383
" />
<path d="M20.4173 123.9383
L20.4173 121.9383
" />
<path d="M20.4173 121.9383
L21.0840 123.3669
" />
<path d="M21.0840 123.3669
L21.7506 121.9383
" />
<path d="M21.7506 121.9383
L21.7506 123.9383
" />
<path d="M23.5602 123.9383
L23.5602 122.8907
" />
<path d="M23.5602 122.8907
L23.4649 122.7002
" />
<path d="M23.4649 122.7002
L23.2744 122.6050
" />
<path d="M23.2744 122.6050
L22.8935 122.6050
" />
<path d="M22.8935 122.6050
L22.7030 122.7002
" />
<path d="M23.5602 123.8431
L23.3697 123.9383
" />
<path d="M23.3697 123.9383
L22.8935 123.9383
" />
<path d="M22.8935 123.9383
L22.7030 123.8431
" />
<path d="M22.7030 123.8431
L22.6078 123.6526
" />
<path d="M22.6078 123.6526
L22.6078 123.4621
" />
<path d="M22.6078 123.4621
L22.7030 123.2716
" />
<path d="M22.7030 123.2716
L22.8935 123.1764
" />
<path d="M22.8935 123.1764
L23.3697 123.1764
" />
<path d="M23.3697 123.1764
L23.5602 123.0812
" />
<path d="M24.5125 122.6050
L24.5125 124.6050
" />
<path d="M24.5125 122.7002
L24.7030 122.6050
" />
<path d="M24.7030 122.6050
L25.0840 122.6050
" />
<path d="M25.0840 122.6050
L25.2744 122.7002
" />
<path d="M25.2744 122.7002
L25.3697 122.7955
" />
<path d="M25.3697 122.7955
L25.4649 122.9859
" />
<path d="M25.4649 122.9859
L25.4649 123.5574
" />
<path d="M25.4649 123.5574
L25.3697 123.7478
" />
<path d="M25.3697 123.7478
L25.2744 123.8431
" />
<path d="M25.2744 123.8431
L25.0840 123.9383
" />
<path d="M25.0840 123.9383
L24.7030 123.9383
" />
<path d="M24.7030 123.9383
L24.5125 123.8431
" />
<path d="M26.3221 123.7478
L26.4173 123.8431
" />
<path d="M26.4173 123.8431
L26.3221 123.9383
" />
<path d="M26.3221 123.9383
L26.2268 123.8431
" />
<path d="M26.2268 123.8431
L26.3221 123.7478
" />
<path d="M26.3221 123.7478
L26.3221 123.9383
" />
<path d="M26.3221 122.7002
L26.4173 122.7955
" />
<path d="M26.4173 122.7955
L26.3221 122.8907
" />
<path d="M26.3221 122.8907
L26.2268 122.7955
" />
<path d="M26.2268 122.7955
L26.3221 122.7002
" />
<path d="M26.3221 122.7002
L26.3221 122.8907
" />
</g></g>
<g style="fill:#000000; fill-opacity:0.0; 
stroke:#000000; stroke-width:0.0960; stroke-opacity:1; 
stroke-linecap:round; stroke-linejoin:round;">
<path d="M9.0400 126.7435
L10.0000 127.7035
" />
<path d="M10.0000 126.7435
L9.0400 127.7035
" />
</g>
<g style="fill:#000000; fill-opacity:0.0; 
stroke:#000000; stroke-width:0.4800; stroke-opacity:1; 
stroke-linecap:round; stroke-linejoin:round;">
</g>
<g style="fill:#000000; fill-opacity:0.0; 
stroke:#000000; stroke-width:0.2000; stroke-opacity:1; 
stroke-linecap:round; stroke-linejoin:round;">
<text x="12.0000" y="128.2235"
textLength="66.6762" font-size="2.6667" lengthAdjust="spacingAndGlyphs"
text-anchor="start" opacity="0">0.400mm / 0.0157" (2 holes) (not plated)</text>
<g class="stroked-text"><desc>0.400mm / 0.0157" (2 holes) (not plated)</desc>
<path d="M12.9887 126.1383
L13.1792 126.1383
" />
<path d="M13.1792 126.1383
L13.3697 126.2335
" />
<path d="M13.3697 126.2335
L13.4649 126.3288
" />
<path d="M13.4649 126.3288
L13.5602 126.5193
" />
<path d="M13.5602 126.5193
L13.6554 126.9002
" />
<path d="M13.6554 126.9002
L13.6554 127.3764
" />
<path d="M13.6554 127.3764
L13.5602 127.7574
" />
<path d="M13.5602 127.7574
L13.4649 127.9478
" />
<path d="M13.4649 127.9478
L13.3697 128.0431
" />
<path d="M13.3697 128.0431
L13.1792 128.1383
" />
<path d="M13.1792 128.1383
L12.9887 128.1383
" />
<path d="M12.9887 128.1383
L12.7982 128.0431
" />
<path d="M12.7982 128.0431
L12.7030 127.9478
" />
<path d="M12.7030 127.9478
L12.6078 127.7574
" />
<path d="M12.6078 127.7574
L12.5125 127.3764
" />
<path d="M12.5125 127.3764
L12.5125 126.9002
" />
<path d="M12.5125 126.9002
L12.6078 126.5193
" />
<path d="M12.6078 126.5193
L12.7030 126.3288
" />
<path d="M12.7030 126.3288
L12.7982 126.2335
" />
<path d="M12.7982 126.2335
L12.9887 126.1383
" />
<path d="M14.5125 127.9478
L14.6078 128.0431
" />
<path d="M14.6078 128.0431
L14.5125 128.1383
" />
<path d="M14.5125 128.1383
L14.4173 128.0431
" />
<path d="M14.4173 128.0431
L14.5125 127.9478
" />
<path d="M14.5125 127.9478
L14.5125 128.1383
" />
<path d="M16.3221 126.8050
L16.3221 128.1383
" />
<path d="M15.8459 126.0431
L15.3697 127.4716
" />
<path d="M15.3697 127.4716
L16.6078 127.4716
" />
<path d="M17.7506 126.1383
L17.9411 126.1383
" />
<path d="M17.9411 126.1383
L18.1316 126.2335
" />
<path d="M18.1316 126.2335
L18.2268 126.3288
" />
<path d="M18.2268 126.3288
L18.3221 126.5193
" />
<path d="M18.3221 126.5193
L18.4173 126.9002
" />
<path d="M18.4173 126.9002
L18.4173 127.3764
" />
<path d="M18.4173 127.3764
L18.3221 127.7574
" />
<path d="M18.3221 127.7574
L18.2268 127.9478
" />
<path d="M18.2268 127.9478
L18.1316 128.0431
" />
<path d="M18.1316 128.0431
L17.9411 128.1383
" />
<path d="M17.9411 128.1383
L17.7506 128.1383
" />
<path d="M17.7506 128.1383
L17.5602 128.0431
" />
<path d="M17.5602 128.0431
L17.4649 127.9478
" />
<path d="M17.4649 127.9478
L17.3697 127.7574
" />
<path d="M17.3697 127.7574
L17.2744 127.3764
" />
<path d="M17.2744 127.3764
L17.2744 126.9002
" />
<path d="M17.2744 126.9002
L17.3697 126.5193
" />
<path d="M17.3697 126.5193
L17.4649 126.3288
" />
<path d="M17.4649 126.3288
L17.5602 126.2335
" />
<path d="M17.5602 126.2335
L17.7506 126.1383
" />
<path d="M19.6554 126.1383
L19.8459 126.1383
" />
<path d="M19.8459 126.1383
L20.0363 126.2335
" />
<path d="M20.0363 126.2335
L20.1316 126.3288
" />
<path d="M20.1316 126.3288
L20.2268 126.5193
" />
<path d="M20.2268 126.5193
L20.3221 126.9002
" />
<path d="M20.3221 126.9002
L20.3221 127.3764
" />
<path d="M20.3221 127.3764
L20.2268 127.7574
" />
<path d="M20.2268 127.7574
L20.1316 127.9478
" />
<path d="M20.1316 127.9478
L20.0363 128.0431
" />
<path d="M20.0363 128.0431
L19.8459 128.1383
" />
<path d="M19.8459 128.1383
L19.6554 128.1383
" />
<path d="M19.6554 128.1383
L19.4649 128.0431
" />
<path d="M19.4649 128.0431
L19.3697 127.9478
" />
<path d="M19.3697 127.9478
L19.2744 127.7574
" />
<path d="M19.2744 127.7574
L19.1792 127.3764
" />
<path d="M19.1792 127.3764
L19.1792 126.9002
" />
<path d="M19.1792 126.9002
L19.2744 126.5193
" />
<path d="M19.2744 126.5193
L19.3697 126.3288
" />
<path d="M19.3697 126.3288
L19.4649 126.2335
" />
<path d="M19.4649 126.2335
L19.6554 126.1383
" />
<path d="M21.1792 128.1383
L21.1792 126.8050
" />
<path d="M21.1792 126.9955
L21.2744 126.9002
" />
<path d="M21.2744 126.9002
L21.4649 126.8050
" />
<path d="M21.4649 126.8050
L21.7506 126.8050
" />
<path d="M21.7506 126.8050
L21.9411 126.9002
" />
<path d="M21.9411 126.9002
L22.0364 127.0907
" />
<path d="M22.0364 127.0907
L22.0364 128.1383
" />
<path d="M22.0364 127.0907
L22.1316 126.9002
" />
<path d="M22.1316 126.9002
L22.3221 126.8050
" />
<path d="M22.3221 126.8050
L22.6078 126.8050
" />
<path d="M22.6078 126.8050
L22.7983 126.9002
" />
<path d="M22.7983 126.9002
L22.8935 127.0907
" />
<path d="M22.8935 127.0907
L22.8935 128.1383
" />
<path d="M23.8459 128.1383
L23.8459 126.8050
" />
<path d="M23.8459 126.9955
L23.9411 126.9002
" />
<path d="M23.9411 126.9002
L24.1316 126.8050
" />
<path d="M24.1316 126.8050
L24.4173 126.8050
" />
<path d="M24.4173 126.8050
L24.6078 126.9002
" />
<path d="M24.6078 126.9002
L24.7030 127.0907
" />
<path d="M24.7030 127.0907
L24.7030 128.1383
" />
<path d="M24.7030 127.0907
L24.7983 126.9002
" />
<path d="M24.7983 126.9002
L24.9887 126.8050
" />
<path d="M24.9887 126.8050
L25.2744 126.8050
" />
<path d="M25.2744 126.8050
L25.4649 126.9002
" />
<path d="M25.4649 126.9002
L25.5602 127.0907
" />
<path d="M25.5602 127.0907
L25.5602 128.1383
" />
<path d="M29.4649 126.0431
L27.7506 128.6145
" />
<path d="M32.0364 126.1383
L32.2268 126.1383
" />
<path d="M32.2268 126.1383
L32.4173 126.2335
" />
<path d="M32.4173 126.2335
L32.5125 126.3288
" />
<path d="M32.5125 126.3288
L32.6078 126.5193
" />
<path d="M32.6078 126.5193
L32.7030 126.9002
" />
<path d="M32.7030 126.9002
L32.7030 127.3764
" />
<path d="M32.7030 127.3764
L32.6078 127.7574
" />
<path d="M32.6078 127.7574
L32.5125 127.9478
" />
<path d="M32.5125 127.9478
L32.4173 128.0431
" />
<path d="M32.4173 128.0431
L32.2268 128.1383
" />
<path d="M32.2268 128.1383
L32.0364 128.1383
" />
<path d="M32.0364 128.1383
L31.8459 128.0431
" />
<path d="M31.8459 128.0431
L31.7506 127.9478
" />
<path d="M31.7506 127.9478
L31.6554 127.7574
" />
<path d="M31.6554 127.7574
L31.5602 127.3764
" />
<path d="M31.5602 127.3764
L31.5602 126.9002
" />
<path d="M31.5602 126.9002
L31.6554 126.5193
" />
<path d="M31.6554 126.5193
L31.7506 126.3288
" />
<path d="M31.7506 126.3288
L31.8459 126.2335
" />
<path d="M31.8459 126.2335
L32.0364 126.1383
" />
<path d="M33.5602 127.9478
L33.6554 128.0431
" />
<path d="M33.6554 128.0431
L33.5602 128.1383
" />
<path d="M33.5602 128.1383
L33.4649 128.0431
" />
<path d="M33.4649 128.0431
L33.5602 127.9478
" />
<path d="M33.5602 127.9478
L33.5602 128.1383
" />
<path d="M34.8935 126.1383
L35.0840 126.1383
" />
<path d="M35.0840 126.1383
L35.2745 126.2335
" />
<path d="M35.2745 126.2335
L35.3697 126.3288
" />
<path d="M35.3697 126.3288
L35.4649 126.5193
" />
<path d="M35.4649 126.5193
L35.5602 126.9002
" />
<path d="M35.5602 126.9002
L35.5602 127.3764
" />
<path d="M35.5602 127.3764
L35.4649 127.7574
" />
<path d="M35.4649 127.7574
L35.3697 127.9478
" />
<path d="M35.3697 127.9478
L35.2745 128.0431
" />
<path d="M35.2745 128.0431
L35.0840 128.1383
" />
<path d="M35.0840 128.1383
L34.8935 128.1383
" />
<path d="M34.8935 128.1383
L34.7030 128.0431
" />
<path d="M34.7030 128.0431
L34.6078 127.9478
" />
<path d="M34.6078 127.9478
L34.5125 127.7574
" />
<path d="M34.5125 127.7574
L34.4173 127.3764
" />
<path d="M34.4173 127.3764
L34.4173 126.9002
" />
<path d="M34.4173 126.9002
L34.5125 126.5193
" />
<path d="M34.5125 126.5193
L34.6078 126.3288
" />
<path d="M34.6078 126.3288
L34.7030 126.2335
" />
<path d="M34.7030 126.2335
L34.8935 126.1383
" />
<path d="M37.4649 128.1383
L36.3221 128.1383
" />
<path d="M36.8935 128.1383
L36.8935 126.1383
" />
<path d="M36.8935 126.1383
L36.7030 126.4240
" />
<path d="M36.7030 126.4240
L36.5125 126.6145
" />
<path d="M36.5125 126.6145
L36.3221 126.7097
" />
<path d="M39.2745 126.1383
L38.3221 126.1383
" />
<path d="M38.3221 126.1383
L38.2268 127.0907
" />
<path d="M38.2268 127.0907
L38.3221 126.9955
" />
<path d="M38.3221 126.9955
L38.5126 126.9002
" />
<path d="M38.5126 126.9002
L38.9887 126.9002
" />
<path d="M38.9887 126.9002
L39.1792 126.9955
" />
<path d="M39.1792 126.9955
L39.2745 127.0907
" />
<path d="M39.2745 127.0907
L39.3697 127.2812
" />
<path d="M39.3697 127.2812
L39.3697 127.7574
" />
<path d="M39.3697 127.7574
L39.2745 127.9478
" />
<path d="M39.2745 127.9478
L39.1792 128.0431
" />
<path d="M39.1792 128.0431
L38.9887 128.1383
" />
<path d="M38.9887 128.1383
L38.5126 128.1383
" />
<path d="M38.5126 128.1383
L38.3221 128.0431
" />
<path d="M38.3221 128.0431
L38.2268 127.9478
" />
<path d="M40.0364 126.1383
L41.3697 126.1383
" />
<path d="M41.3697 126.1383
L40.5126 128.1383
" />
<path d="M42.0364 126.1383
L42.0364 126.5193
" />
<path d="M42.7983 126.1383
L42.7983 126.5193
" />
<path d="M45.7507 128.9002
L45.6554 128.8050
" />
<path d="M45.6554 128.8050
L45.4649 128.5193
" />
<path d="M45.4649 128.5193
L45.3697 128.3288
" />
<path d="M45.3697 128.3288
L45.2745 128.0431
" />
<path d="M45.2745 128.0431
L45.1792 127.5669
" />
<path d="M45.1792 127.5669
L45.1792 127.1859
" />
<path d="M45.1792 127.1859
L45.2745 126.7097
" />
<path d="M45.2745 126.7097
L45.3697 126.4240
" />
<path d="M45.3697 126.4240
L45.4649 126.2335
" />
<path d="M45.4649 126.2335
L45.6554 125.9478
" />
<path d="M45.6554 125.9478
L45.7507 125.8526
" />
<path d="M46.4173 126.3288
L46.5126 126.2335
" />
<path d="M46.5126 126.2335
L46.7030 126.1383
" />
<path d="M46.7030 126.1383
L47.1792 126.1383
" />
<path d="M47.1792 126.1383
L47.3697 126.2335
" />
<path d="M47.3697 126.2335
L47.4649 126.3288
" />
<path d="M47.4649 126.3288
L47.5602 126.5193
" />
<path d="M47.5602 126.5193
L47.5602 126.7097
" />
<path d="M47.5602 126.7097
L47.4649 126.9955
" />
<path d="M47.4649 126.9955
L46.3221 128.1383
" />
<path d="M46.3221 128.1383
L47.5602 128.1383
" />
<path d="M49.9411 128.1383
L49.9411 126.1383
" />
<path d="M50.7983 128.1383
L50.7983 127.0907
" />
<path d="M50.7983 127.0907
L50.7030 126.9002
" />
<path d="M50.7030 126.9002
L50.5126 126.8050
" />
<path d="M50.5126 126.8050
L50.2269 126.8050
" />
<path d="M50.2269 126.8050
L50.0364 126.9002
" />
<path d="M50.0364 126.9002
L49.9411 126.9955
" />
<path d="M52.0364 128.1383
L51.8459 128.0431
" />
<path d="M51.8459 128.0431
L51.7507 127.9478
" />
<path d="M51.7507 127.9478
L51.6554 127.7574
" />
<path d="M51.6554 127.7574
L51.6554 127.1859
" />
<path d="M51.6554 127.1859
L51.7507 126.9955
" />
<path d="M51.7507 126.9955
L51.8459 126.9002
" />
<path d="M51.8459 126.9002
L52.0364 126.8050
" />
<path d="M52.0364 126.8050
L52.3221 126.8050
" />
<path d="M52.3221 126.8050
L52.5126 126.9002
" />
<path d="M52.5126 126.9002
L52.6078 126.9955
" />
<path d="M52.6078 126.9955
L52.7030 127.1859
" />
<path d="M52.7030 127.1859
L52.7030 127.7574
" />
<path d="M52.7030 127.7574
L52.6078 127.9478
" />
<path d="M52.6078 127.9478
L52.5126 128.0431
" />
<path d="M52.5126 128.0431
L52.3221 128.1383
" />
<path d="M52.3221 128.1383
L52.0364 128.1383
" />
<path d="M53.8459 128.1383
L53.6554 128.0431
" />
<path d="M53.6554 128.0431
L53.5602 127.8526
" />
<path d="M53.5602 127.8526
L53.5602 126.1383
" />
<path d="M55.3697 128.0431
L55.1792 128.1383
" />
<path d="M55.1792 128.1383
L54.7983 128.1383
" />
<path d="M54.7983 128.1383
L54.6078 128.0431
" />
<path d="M54.6078 128.0431
L54.5126 127.8526
" />
<path d="M54.5126 127.8526
L54.5126 127.0907
" />
<path d="M54.5126 127.0907
L54.6078 126.9002
" />
<path d="M54.6078 126.9002
L54.7983 126.8050
" />
<path d="M54.7983 126.8050
L55.1792 126.8050
" />
<path d="M55.1792 126.8050
L55.3697 126.9002
" />
<path d="M55.3697 126.9002
L55.4649 127.0907
" />
<path d="M55.4649 127.0907
L55.4649 127.2812
" />
<path d="M55.4649 127.2812
L54.5126 127.4716
" />
<path d="M56.2269 128.0431
L56.4173 128.1383
" />
<path d="M56.4173 128.1383
L56.7983 128.1383
" />
<path d="M56.7983 128.1383
L56.9888 128.0431
" />
<path d="M56.9888 128.0431
L57.0840 127.8526
" />
<path d="M57.0840 127.8526
L57.0840 127.7574
" />
<path d="M57.0840 127.7574
L56.9888 127.5669
" />
<path d="M56.9888 127.5669
L56.7983 127.4716
" />
<path d="M56.7983 127.4716
L56.5126 127.4716
" />
<path d="M56.5126 127.4716
L56.3221 127.3764
" />
<path d="M56.3221 127.3764
L56.2269 127.1859
" />
<path d="M56.2269 127.1859
L56.2269 127.0907
" />
<path d="M56.2269 127.0907
L56.3221 126.9002
" />
<path d="M56.3221 126.9002
L56.5126 126.8050
" />
<path d="M56.5126 126.8050
L56.7983 126.8050
" />
<path d="M56.7983 126.8050
L56.9888 126.9002
" />
<path d="M57.7507 128.9002
L57.8459 128.8050
" />
<path d="M57.8459 128.8050
L58.0364 128.5193
" />
<path d="M58.0364 128.5193
L58.1316 128.3288
" />
<path d="M58.1316 128.3288
L58.2269 128.0431
" />
<path d="M58.2269 128.0431
L58.3221 127.5669
" />
<path d="M58.3221 127.5669
L58.3221 127.1859
" />
<path d="M58.3221 127.1859
L58.2269 126.7097
" />
<path d="M58.2269 126.7097
L58.1316 126.4240
" />
<path d="M58.1316 126.4240
L58.0364 126.2335
" />
<path d="M58.0364 126.2335
L57.8459 125.9478
" />
<path d="M57.8459 125.9478
L57.7507 125.8526
" />
<path d="M61.3697 128.9002
L61.2745 128.8050
" />
<path d="M61.2745 128.8050
L61.0840 128.5193
" />
<path d="M61.0840 128.5193
L60.9888 128.3288
" />
<path d="M60.9888 128.3288
L60.8935 128.0431
" />
<path d="M60.8935 128.0431
L60.7983 127.5669
" />
<path d="M60.7983 127.5669
L60.7983 127.1859
" />
<path d="M60.7983 127.1859
L60.8935 126.7097
" />
<path d="M60.8935 126.7097
L60.9888 126.4240
" />
<path d="M60.9888 126.4240
L61.0840 126.2335
" />
<path d="M61.0840 126.2335
L61.2745 125.9478
" />
<path d="M61.2745 125.9478
L61.3697 125.8526
" />
<path d="M62.1316 126.8050
L62.1316 128.1383
" />
<path d="M62.1316 126.9955
L62.2269 126.9002
" />
<path d="M62.2269 126.9002
L62.4173 126.8050
" />
<path d="M62.4173 126.8050
L62.7031 126.8050
" />
<path d="M62.7031 126.8050
L62.8935 126.9002
" />
<path d="M62.8935 126.9002
L62.9888 127.0907
" />
<path d="M62.9888 127.0907
L62.9888 128.1383
" />
<path d="M64.2269 128.1383
L64.0364 128.0431
" />
<path d="M64.0364 128.0431
L63.9411 127.9478
" />
<path d="M63.9411 127.9478
L63.8459 127.7574
" />
<path d="M63.8459 127.7574
L63.8459 127.1859
" />
<path d="M63.8459 127.1859
L63.9411 126.9955
" />
<path d="M63.9411 126.9955
L64.0364 126.9002
" />
<path d="M64.0364 126.9002
L64.2269 126.8050
" />
<path d="M64.2269 126.8050
L64.5126 126.8050
" />
<path d="M64.5126 126.8050
L64.7031 126.9002
" />
<path d="M64.7031 126.9002
L64.7983 126.9955
" />
<path d="M64.7983 126.9955
L64.8935 127.1859
" />
<path d="M64.8935 127.1859
L64.8935 127.7574
" />
<path d="M64.8935 127.7574
L64.7983 127.9478
" />
<path d="M64.7983 127.9478
L64.7031 128.0431
" />
<path d="M64.7031 128.0431
L64.5126 128.1383
" />
<path d="M64.5126 128.1383
L64.2269 128.1383
" />
<path d="M65.4650 126.8050
L66.2269 126.8050
" />
<path d="M65.7507 126.1383
L65.7507 127.8526
" />
<path d="M65.7507 127.8526
L65.8459 128.0431
" />
<path d="M65.8459 128.0431
L66.0364 128.1383
" />
<path d="M66.0364 128.1383
L66.2269 128.1383
" />
<path d="M68.4173 126.8050
L68.4173 128.8050
" />
<path d="M68.4173 126.9002
L68.6078 126.8050
" />
<path d="M68.6078 126.8050
L68.9888 126.8050
" />
<path d="M68.9888 126.8050
L69.1792 126.9002
" />
<path d="M69.1792 126.9002
L69.2745 126.9955
" />
<path d="M69.2745 126.9955
L69.3697 127.1859
" />
<path d="M69.3697 127.1859
L69.3697 127.7574
" />
<path d="M69.3697 127.7574
L69.2745 127.9478
" />
<path d="M69.2745 127.9478
L69.1792 128.0431
" />
<path d="M69.1792 128.0431
L68.9888 128.1383
" />
<path d="M68.9888 128.1383
L68.6078 128.1383
" />
<path d="M68.6078 128.1383
L68.4173 128.0431
" />
<path d="M70.5126 128.1383
L70.3221 128.0431
" />
<path d="M70.3221 128.0431
L70.2269 127.8526
" />
<path d="M70.2269 127.8526
L70.2269 126.1383
" />
<path d="M72.1316 128.1383
L72.1316 127.0907
" />
<path d="M72.1316 127.0907
L72.0364 126.9002
" />
<path d="M72.0364 126.9002
L71.8459 126.8050
" />
<path d="M71.8459 126.8050
L71.4650 126.8050
" />
<path d="M71.4650 126.8050
L71.2745 126.9002
" />
<path d="M72.1316 128.0431
L71.9412 128.1383
" />
<path d="M71.9412 128.1383
L71.4650 128.1383
" />
<path d="M71.4650 128.1383
L71.2745 128.0431
" />
<path d="M71.2745 128.0431
L71.1792 127.8526
" />
<path d="M71.1792 127.8526
L71.1792 127.6621
" />
<path d="M71.1792 127.6621
L71.2745 127.4716
" />
<path d="M71.2745 127.4716
L71.4650 127.3764
" />
<path d="M71.4650 127.3764
L71.9412 127.3764
" />
<path d="M71.9412 127.3764
L72.1316 127.2812
" />
<path d="M72.7983 126.8050
L73.5602 126.8050
" />
<path d="M73.0840 126.1383
L73.0840 127.8526
" />
<path d="M73.0840 127.8526
L73.1792 128.0431
" />
<path d="M73.1792 128.0431
L73.3697 128.1383
" />
<path d="M73.3697 128.1383
L73.5602 128.1383
" />
<path d="M74.9888 128.0431
L74.7983 128.1383
" />
<path d="M74.7983 128.1383
L74.4173 128.1383
" />
<path d="M74.4173 128.1383
L74.2269 128.0431
" />
<path d="M74.2269 128.0431
L74.1316 127.8526
" />
<path d="M74.1316 127.8526
L74.1316 127.0907
" />
<path d="M74.1316 127.0907
L74.2269 126.9002
" />
<path d="M74.2269 126.9002
L74.4173 126.8050
" />
<path d="M74.4173 126.8050
L74.7983 126.8050
" />
<path d="M74.7983 126.8050
L74.9888 126.9002
" />
<path d="M74.9888 126.9002
L75.0840 127.0907
" />
<path d="M75.0840 127.0907
L75.0840 127.2812
" />
<path d="M75.0840 127.2812
L74.1316 127.4716
" />
<path d="M76.7983 128.1383
L76.7983 126.1383
" />
<path d="M76.7983 128.0431
L76.6078 128.1383
" />
<path d="M76.6078 128.1383
L76.2269 128.1383
" />
<path d="M76.2269 128.1383
L76.0364 128.0431
" />
<path d="M76.0364 128.0431
L75.9412 127.9478
" />
<path d="M75.9412 127.9478
L75.8459 127.7574
" />
<path d="M75.8459 127.7574
L75.8459 127.1859
" />
<path d="M75.8459 127.1859
L75.9412 126.9955
" />
<path d="M75.9412 126.9955
L76.0364 126.9002
" />
<path d="M76.0364 126.9002
L76.2269 126.8050
" />
<path d="M76.2269 126.8050
L76.6078 126.8050
" />
<path d="M76.6078 126.8050
L76.7983 126.9002
" />
<path d="M77.5602 128.9002
L77.6554 128.8050
" />
<path d="M77.6554 128.8050
L77.8459 128.5193
" />
<path d="M77.8459 128.5193
L77.9412 128.3288
" />
<path d="M77.9412 128.3288
L78.0364 128.0431
" />
<path d="M78.0364 128.0431
L78.1316 127.5669
" />
<path d="M78.1316 127.5669
L78.1316 127.1859
" />
<path d="M78.1316 127.1859
L78.0364 126.7097
" />
<path d="M78.0364 126.7097
L77.9412 126.4240
" />
<path d="M77.9412 126.4240
L77.8459 126.2335
" />
<path d="M77.8459 126.2335
L77.6554 125.9478
" />
<path d="M77.6554 125.9478
L77.5602 125.8526
" />
</g></g> 
</svg>
