%TF.GenerationSoftware,KiCad,Pcbnew,7.0.8*%
%TF.CreationDate,2023-12-10T13:03:43-06:00*%
%TF.ProjectId,sadcatz40,73616463-6174-47a3-9430-2e6b69636164,rev?*%
%TF.SameCoordinates,Original*%
%TF.FileFunction,Plated,1,2,PTH,Mixed*%
%TF.FilePolarity,Positive*%
%FSLAX46Y46*%
G04 Gerber Fmt 4.6, Leading zero omitted, Abs format (unit mm)*
G04 Created by KiCad (PCBNEW 7.0.8) date 2023-12-10 13:03:43*
%MOMM*%
%LPD*%
G01*
G04 APERTURE LIST*
%TA.AperFunction,ViaDrill*%
%ADD10C,0.400000*%
%TD*%
G04 aperture for slot hole*
%TA.AperFunction,ComponentDrill*%
%ADD11O,0.500000X1.650000*%
%TD*%
%TA.AperFunction,ComponentDrill*%
%ADD12C,2.000000*%
%TD*%
G04 APERTURE END LIST*
D10*
X40342978Y-59034901D03*
X45721165Y-71602254D03*
X48278319Y-61898888D03*
X48743986Y-68978111D03*
X48856075Y-52074106D03*
X50737260Y-41405359D03*
X55569241Y-73338735D03*
X57305721Y-63490661D03*
X58592062Y-70714594D03*
X58704145Y-53810586D03*
X60585337Y-43141841D03*
X65417310Y-75075214D03*
X67153795Y-65227142D03*
X68440141Y-72451075D03*
X68552224Y-55547069D03*
X70433412Y-44878322D03*
X75265386Y-76811696D03*
X77005794Y-66738856D03*
X77998805Y-75828902D03*
X78400296Y-57283547D03*
X80281484Y-46614801D03*
X81434068Y-73049877D03*
X81665329Y-67560459D03*
X81762224Y-43016063D03*
X82796236Y-75828630D03*
X82973700Y-74819918D03*
X84176529Y-71624924D03*
X84183082Y-47087907D03*
X84491280Y-66680798D03*
X85063888Y-69231362D03*
X85521012Y-47798532D03*
X85572300Y-77660451D03*
X85872337Y-61677150D03*
X86607022Y-58730617D03*
X86672333Y-71627154D03*
X86672334Y-67127150D03*
X86771435Y-72627152D03*
X87408383Y-55477150D03*
X87597336Y-70850836D03*
X87689551Y-59331662D03*
X88479302Y-51275368D03*
X89529302Y-51275364D03*
X89789158Y-48976266D03*
X90319709Y-46995465D03*
X90525908Y-44584971D03*
X90547334Y-63177154D03*
X90604306Y-54275366D03*
X90704303Y-43575366D03*
X91477388Y-62812216D03*
X92104304Y-48200865D03*
X92270937Y-64908672D03*
X92379764Y-63242005D03*
X92853856Y-45626423D03*
X93104267Y-73242001D03*
X93937597Y-63242004D03*
X93937597Y-64908674D03*
X94022742Y-48243469D03*
X95304304Y-46975363D03*
X95404304Y-43575367D03*
X95579862Y-62464583D03*
X95729559Y-50184902D03*
X96303370Y-44012040D03*
X96655774Y-71793509D03*
X96984354Y-47867593D03*
X97273766Y-46226246D03*
X97888972Y-47013982D03*
X99822645Y-70690287D03*
X101621576Y-67463020D03*
X101857918Y-68803381D03*
X102036152Y-69812042D03*
X103293236Y-74783957D03*
X107426305Y-46977153D03*
X107437462Y-57975637D03*
X109147707Y-67674919D03*
X110572291Y-77660453D03*
X111815076Y-76666081D03*
X113854810Y-72921667D03*
X116453706Y-45385379D03*
X118190187Y-55233453D03*
X119637255Y-63440181D03*
X119926668Y-65081526D03*
X121663149Y-74929600D03*
X123847593Y-72005858D03*
X126301780Y-43648898D03*
X128038261Y-53496972D03*
X129774742Y-63345045D03*
X131511223Y-73193119D03*
X133695671Y-70269376D03*
X136149853Y-41912417D03*
X136981698Y-52766191D03*
X138691944Y-62465477D03*
X141359297Y-71456638D03*
X141807266Y-58684821D03*
X144501288Y-41286022D03*
X146237769Y-51134096D03*
X147974250Y-60982169D03*
X149710731Y-70830243D03*
D11*
%TO.C,J1*%
X87529266Y-34504166D03*
X87529266Y-39104166D03*
X98679266Y-34504166D03*
X98679266Y-39104166D03*
D12*
%TO.C,H3*%
X46563844Y-64065990D03*
%TO.C,H1*%
X50057653Y-44251630D03*
%TO.C,H4*%
X76108079Y-69275439D03*
%TO.C,H2*%
X79601884Y-49461072D03*
%TO.C,H5*%
X106692635Y-49579281D03*
%TO.C,H7*%
X110165600Y-69275434D03*
%TO.C,H6*%
X136236870Y-44369835D03*
%TO.C,H8*%
X139709834Y-64065989D03*
M02*
