<?xml version="1.0" standalone="no"?>
 <!DOCTYPE svg PUBLIC "-//W3C//DTD SVG 1.1//EN" 
 "http://www.w3.org/Graphics/SVG/1.1/DTD/svg11.dtd"> 
<svg
  xmlns:svg="http://www.w3.org/2000/svg"
  xmlns="http://www.w3.org/2000/svg"
  xmlns:xlink="http://www.w3.org/1999/xlink"
  version="1.1"
  width="297.0022mm" height="210.0072mm" viewBox="0.0000 0.0000 297.0022 210.0072">
<title>SVG Image created as sadcatz40-PTH-drl-drl_map.svg date 2023/12/10 13:03:43 </title>
  <desc>Image generated by PCBNEW </desc>
<g style="fill:#000000; fill-opacity:1.0000;stroke:#000000; stroke-opacity:1.0000;
stroke-linecap:round; stroke-linejoin:round;"
 transform="translate(0 0) scale(1 1)">
</g>
<g style="fill:#000000; fill-opacity:0.0; 
stroke:#000000; stroke-width:0.0000; stroke-opacity:1; 
stroke-linecap:round; stroke-linejoin:round;">
</g>
<g style="fill:#000000; fill-opacity:0.0; 
stroke:#000000; stroke-width:0.1200; stroke-opacity:1; 
stroke-linecap:round; stroke-linejoin:round;">
<path d="M31.6316 5.3810 A7.2003 7.2003 0.0 0 0 24.5408 11.3309" />
<path d="M10.1696 92.8343
L24.5408 11.3309
" />
<path d="M126.4791 120.6541
L16.0101 101.1754
" />
<path d="M280.9924 101.1754
L170.5234 120.6541
" />
</g>
<g style="fill:#000000; fill-opacity:0.0; 
stroke:#000000; stroke-width:0.2400; stroke-opacity:1; 
stroke-linecap:round; stroke-linejoin:round;">
<path d="M166.7138 5.3008
L265.3708 5.3810
" />
</g>
<g style="fill:#000000; fill-opacity:0.0; 
stroke:#000000; stroke-width:0.1200; stroke-opacity:1; 
stroke-linecap:round; stroke-linejoin:round;">
<path d="M10.1694 92.8343 A7.2001 7.2001 0.0 0 0 16.0101 101.1754" />
</g>
<g style="fill:#000000; fill-opacity:0.0; 
stroke:#000000; stroke-width:0.2400; stroke-opacity:1; 
stroke-linecap:round; stroke-linejoin:round;">
<path d="M130.1368 5.3009
L31.6316 5.3810
" />
</g>
<g style="fill:#000000; fill-opacity:0.0; 
stroke:#000000; stroke-width:0.1200; stroke-opacity:1; 
stroke-linecap:round; stroke-linejoin:round;">
<path d="M169.2731 120.7635
L127.7294 120.7635
" />
<path d="M280.9924 101.1755 A7.2006 7.2006 0.0 0 0 286.8329 92.8343" />
<path d="M272.4616 11.3309
L286.8329 92.8343
" />
<path d="M169.2731 120.7634 A7.2011 7.2011 0.0 0 0 170.5234 120.6541" />
<path d="M272.4615 11.3309 A7.1998 7.1998 0.0 0 0 265.3708 5.3810" />
<path d="M126.4791 120.6541 A7.1968 7.1968 0.0 0 0 127.7294 120.7635" />
</g>
<g style="fill:#000000; fill-opacity:0.0; 
stroke:#000000; stroke-width:0.4800; stroke-opacity:1; 
stroke-linecap:round; stroke-linejoin:round;">
</g>
<g style="fill:#000000; fill-opacity:0.0; 
stroke:#000000; stroke-width:0.0960; stroke-opacity:1; 
stroke-linecap:round; stroke-linejoin:round;">
<path d="M21.3148 67.8963
L22.2748 68.8564
" />
<path d="M22.2748 67.8963
L21.3148 68.8564
" />
<path d="M34.2228 98.0588
L35.1828 99.0188
" />
<path d="M35.1828 98.0588
L34.2228 99.0188
" />
<path d="M40.3601 74.7701
L41.3201 75.7301
" />
<path d="M41.3201 74.7701
L40.3601 75.7301
" />
<path d="M41.4777 91.7607
L42.4377 92.7207
" />
<path d="M42.4377 91.7607
L41.4777 92.7207
" />
<path d="M41.7467 51.1900
L42.7068 52.1500
" />
<path d="M42.7068 51.1900
L41.7467 52.1500
" />
<path d="M46.2617 25.5843
L47.2217 26.5443
" />
<path d="M47.2217 25.5843
L46.2617 26.5443
" />
<path d="M57.8588 102.2265
L58.8188 103.1865
" />
<path d="M58.8188 102.2265
L57.8588 103.1865
" />
<path d="M62.0264 78.5904
L62.9865 79.5505
" />
<path d="M62.9865 78.5904
L62.0264 79.5505
" />
<path d="M65.1137 95.9284
L66.0738 96.8884
" />
<path d="M66.0738 95.9284
L65.1137 96.8884
" />
<path d="M65.3828 55.3576
L66.3428 56.3177
" />
<path d="M66.3428 55.3576
L65.3828 56.3177
" />
<path d="M69.8977 29.7519
L70.8578 30.7120
" />
<path d="M70.8578 29.7519
L69.8977 30.7120
" />
<path d="M81.4948 106.3941
L82.4548 107.3542
" />
<path d="M82.4548 106.3941
L81.4948 107.3542
" />
<path d="M85.6625 82.7581
L86.6225 83.7181
" />
<path d="M86.6225 82.7581
L85.6625 83.7181
" />
<path d="M88.7498 100.0960
L89.7098 101.0560
" />
<path d="M89.7098 100.0960
L88.7498 101.0560
" />
<path d="M89.0188 59.5253
L89.9788 60.4853
" />
<path d="M89.9788 59.5253
L89.0188 60.4853
" />
<path d="M93.5338 33.9196
L94.4938 34.8796
" />
<path d="M94.4938 33.9196
L93.5338 34.8796
" />
<path d="M105.1308 110.5618
L106.0908 111.5218
" />
<path d="M106.0908 110.5618
L105.1308 111.5218
" />
<path d="M109.3079 86.3863
L110.2679 87.3463
" />
<path d="M110.2679 86.3863
L109.3079 87.3463
" />
<path d="M111.6912 108.2030
L112.6512 109.1631
" />
<path d="M112.6512 108.2030
L111.6912 109.1631
" />
<path d="M112.6548 63.6930
L113.6148 64.6530
" />
<path d="M113.6148 63.6930
L112.6548 64.6530
" />
<path d="M117.1698 38.0873
L118.1298 39.0473
" />
<path d="M118.1298 38.0873
L117.1698 39.0473
" />
<path d="M119.9361 101.5332
L120.8961 102.4932
" />
<path d="M120.8961 101.5332
L119.9361 102.4932
" />
<path d="M120.4911 88.3582
L121.4511 89.3183
" />
<path d="M121.4511 88.3582
L120.4911 89.3183
" />
<path d="M120.7237 29.4501
L121.6837 30.4101
" />
<path d="M121.6837 29.4501
L120.7237 30.4101
" />
<path d="M123.2054 108.2024
L124.1654 109.1624
" />
<path d="M124.1654 108.2024
L123.2054 109.1624
" />
<path d="M123.6313 105.7814
L124.5913 106.7414
" />
<path d="M124.5913 105.7814
L123.6313 106.7414
" />
<path d="M126.5181 98.1132
L127.4782 99.0732
" />
<path d="M127.4782 98.1132
L126.5181 99.0732
" />
<path d="M126.5339 39.2228
L127.4939 40.1828
" />
<path d="M127.4939 39.2228
L126.5339 40.1828
" />
<path d="M127.2736 86.2470
L128.2336 87.2070
" />
<path d="M128.2336 86.2470
L127.2736 87.2070
" />
<path d="M128.6479 92.3685
L129.6079 93.3285
" />
<path d="M129.6079 92.3685
L128.6479 93.3285
" />
<path d="M129.7450 40.9283
L130.7050 41.8883
" />
<path d="M130.7050 40.9283
L129.7450 41.8883
" />
<path d="M129.8681 112.5989
L130.8281 113.5589
" />
<path d="M130.8281 112.5989
L129.8681 113.5589
" />
<path d="M130.5882 74.2379
L131.5482 75.1979
" />
<path d="M131.5482 74.2379
L130.5882 75.1979
" />
<path d="M132.3515 67.1660
L133.3115 68.1261
" />
<path d="M133.3115 67.1660
L132.3515 68.1261
" />
<path d="M132.5082 98.1186
L133.4683 99.0786
" />
<path d="M133.4683 98.1186
L132.5082 99.0786
" />
<path d="M132.5082 87.3183
L133.4683 88.2783
" />
<path d="M133.4683 87.3183
L132.5082 88.2783
" />
<path d="M132.7461 100.5186
L133.7061 101.4786
" />
<path d="M133.7061 100.5186
L132.7461 101.4786
" />
<path d="M134.2748 59.3575
L135.2348 60.3175
" />
<path d="M135.2348 59.3575
L134.2748 60.3175
" />
<path d="M134.7283 96.2553
L135.6883 97.2154
" />
<path d="M135.6883 96.2553
L134.7283 97.2154
" />
<path d="M134.9496 68.6086
L135.9097 69.5686
" />
<path d="M135.9097 68.6086
L134.9496 69.5686
" />
<path d="M136.8451 49.2729
L137.8051 50.2330
" />
<path d="M137.8051 49.2729
L136.8451 50.2330
" />
<path d="M139.3652 49.2729
L140.3252 50.2330
" />
<path d="M140.3252 49.2729
L139.3652 50.2330
" />
<path d="M139.9888 43.7549
L140.9488 44.7150
" />
<path d="M140.9488 43.7549
L139.9888 44.7150
" />
<path d="M141.2622 39.0009
L142.2222 39.9609
" />
<path d="M142.2222 39.0009
L141.2622 39.9609
" />
<path d="M141.7571 33.2155
L142.7171 34.1756
" />
<path d="M142.7171 33.2155
L141.7571 34.1756
" />
<path d="M141.8085 77.8380
L142.7685 78.7980
" />
<path d="M142.7685 77.8380
L141.8085 78.7980
" />
<path d="M141.9452 56.4731
L142.9053 57.4332
" />
<path d="M142.9053 56.4731
L141.9452 57.4332
" />
<path d="M142.1852 30.7924
L143.1453 31.7525
" />
<path d="M143.1453 30.7924
L142.1852 31.7525
" />
<path d="M144.0407 76.9621
L145.0007 77.9222
" />
<path d="M145.0007 76.9621
L144.0407 77.9222
" />
<path d="M145.5453 41.8939
L146.5054 42.8540
" />
<path d="M146.5054 41.8939
L145.5453 42.8540
" />
<path d="M145.9453 81.9938
L146.9053 82.9538
" />
<path d="M146.9053 81.9938
L145.9453 82.9538
" />
<path d="M146.2064 77.9937
L147.1665 78.9537
" />
<path d="M147.1665 77.9937
L146.2064 78.9537
" />
<path d="M147.3443 35.7151
L148.3043 36.6751
" />
<path d="M148.3043 35.7151
L147.3443 36.6751
" />
<path d="M147.9453 101.9943
L148.9053 102.9543
" />
<path d="M148.9053 101.9943
L147.9453 102.9543
" />
<path d="M149.9453 77.9936
L150.9054 78.9537
" />
<path d="M150.9054 77.9936
L149.9453 78.9537
" />
<path d="M149.9453 81.9938
L150.9054 82.9538
" />
<path d="M150.9054 81.9938
L149.9453 82.9538
" />
<path d="M150.1497 41.9962
L151.1097 42.9562
" />
<path d="M151.1097 41.9962
L150.1497 42.9562
" />
<path d="M153.2255 38.9526
L154.1856 39.9127
" />
<path d="M154.1856 38.9526
L153.2255 39.9127
" />
<path d="M153.4655 30.7924
L154.4256 31.7525
" />
<path d="M154.4256 30.7924
L153.4655 31.7525
" />
<path d="M153.8869 76.1278
L154.8469 77.0878
" />
<path d="M154.8469 76.1278
L153.8869 77.0878
" />
<path d="M154.2462 46.6557
L155.2062 47.6158
" />
<path d="M155.2062 46.6557
L154.2462 47.6158
" />
<path d="M155.6234 31.8405
L156.5834 32.8005
" />
<path d="M156.5834 31.8405
L155.6234 32.8005
" />
<path d="M156.4692 98.5178
L157.4292 99.4778
" />
<path d="M157.4292 98.5178
L156.4692 99.4778
" />
<path d="M157.2578 41.0941
L158.2178 42.0541
" />
<path d="M158.2178 41.0941
L157.2578 42.0541
" />
<path d="M157.9524 37.1547
L158.9124 38.1147
" />
<path d="M158.9124 37.1547
L157.9524 38.1147
" />
<path d="M159.4289 39.0453
L160.3889 40.0054
" />
<path d="M160.3889 39.0453
L159.4289 40.0054
" />
<path d="M164.0698 95.8700
L165.0299 96.8300
" />
<path d="M165.0299 95.8700
L164.0698 96.8300
" />
<path d="M168.3874 88.1244
L169.3474 89.0844
" />
<path d="M169.3474 88.1244
L168.3874 89.0844
" />
<path d="M168.9546 91.3413
L169.9147 92.3013
" />
<path d="M169.9147 91.3413
L168.9546 92.3013
" />
<path d="M169.3824 93.7622
L170.3424 94.7222
" />
<path d="M170.3424 93.7622
L169.3824 94.7222
" />
<path d="M172.3995 105.6951
L173.3595 106.6551
" />
<path d="M173.3595 105.6951
L172.3995 106.6551
" />
<path d="M182.3191 38.9569
L183.2792 39.9170
" />
<path d="M183.2792 38.9569
L182.3191 39.9170
" />
<path d="M182.3459 65.3540
L183.3059 66.3141
" />
<path d="M183.3059 65.3540
L182.3459 66.3141
" />
<path d="M186.4506 88.6329
L187.4106 89.5930
" />
<path d="M187.4106 88.6329
L186.4506 89.5930
" />
<path d="M189.8697 112.5989
L190.8297 113.5589
" />
<path d="M190.8297 112.5989
L189.8697 113.5589
" />
<path d="M192.8525 110.2123
L193.8125 111.1723
" />
<path d="M193.8125 110.2123
L192.8525 111.1723
" />
<path d="M197.7480 101.2255
L198.7080 102.1855
" />
<path d="M198.7080 101.2255
L197.7480 102.1855
" />
<path d="M203.9855 35.1366
L204.9455 36.0966
" />
<path d="M204.9455 35.1366
L203.9855 36.0966
" />
<path d="M208.1532 58.7726
L209.1132 59.7326
" />
<path d="M209.1132 58.7726
L208.1532 59.7326
" />
<path d="M211.6262 78.4693
L212.5862 79.4293
" />
<path d="M212.5862 78.4693
L211.6262 79.4293
" />
<path d="M212.3208 82.4086
L213.2808 83.3686
" />
<path d="M213.2808 82.4086
L212.3208 83.3686
" />
<path d="M216.4885 106.0446
L217.4485 107.0047
" />
<path d="M217.4485 106.0446
L216.4885 107.0047
" />
<path d="M221.7313 99.0275
L222.6913 99.9875
" />
<path d="M222.6913 99.0275
L221.7313 99.9875
" />
<path d="M227.6215 30.9689
L228.5815 31.9289
" />
<path d="M228.5815 30.9689
L227.6215 31.9289
" />
<path d="M231.7892 54.6049
L232.7492 55.5650
" />
<path d="M232.7492 54.6049
L231.7892 55.5650
" />
<path d="M235.9568 78.2410
L236.9169 79.2010
" />
<path d="M236.9169 78.2410
L235.9568 79.2010
" />
<path d="M240.1245 101.8770
L241.0845 102.8370
" />
<path d="M241.0845 101.8770
L240.1245 102.8370
" />
<path d="M245.3673 94.8598
L246.3274 95.8198
" />
<path d="M246.3274 94.8598
L245.3673 95.8198
" />
<path d="M251.2575 26.8012
L252.2176 27.7613
" />
<path d="M252.2176 26.8012
L251.2575 27.7613
" />
<path d="M253.2540 52.8510
L254.2140 53.8110
" />
<path d="M254.2140 52.8510
L253.2540 53.8110
" />
<path d="M257.3587 76.1299
L258.3187 77.0900
" />
<path d="M258.3187 76.1299
L257.3587 77.0900
" />
<path d="M263.7605 97.7093
L264.7206 98.6693
" />
<path d="M264.7206 97.7093
L263.7605 98.6693
" />
<path d="M264.8357 67.0561
L265.7957 68.0161
" />
<path d="M265.7957 67.0561
L264.8357 68.0161
" />
<path d="M271.3015 25.2979
L272.2615 26.2579
" />
<path d="M272.2615 25.2979
L271.3015 26.2579
" />
<path d="M275.4692 48.9339
L276.4292 49.8939
" />
<path d="M276.4292 48.9339
L275.4692 49.8939
" />
<path d="M279.6369 72.5699
L280.5969 73.5299
" />
<path d="M280.5969 72.5699
L279.6369 73.5299
" />
<path d="M283.8045 96.2059
L284.7645 97.1659
" />
<path d="M284.7645 96.2059
L283.8045 97.1659
" />
</g>
<g style="fill:#000000; fill-opacity:0.0; 
stroke:#000000; stroke-width:0.1200; stroke-opacity:1; 
stroke-linecap:round; stroke-linejoin:round;">
<circle cx="135.0449" cy="9.5010" r="0.6000" /> 
</g>
<g style="fill:#000000; fill-opacity:0.0; 
stroke:#000000; stroke-width:0.4800; stroke-opacity:1; 
stroke-linecap:round; stroke-linejoin:round;">
<path d="M134.4449 8.1209
L134.4449 10.8810
" />
<path d="M134.4449 10.8810 A0.6000 0.6000 0.0 0 0 135.6450 10.8810" />
<path d="M135.6450 10.8810
L135.6450 8.1209
" />
<path d="M135.6450 8.1209 A0.6000 0.6000 0.0 0 0 134.4449 8.1209" />
</g>
<g style="fill:#000000; fill-opacity:0.0; 
stroke:#000000; stroke-width:0.1200; stroke-opacity:1; 
stroke-linecap:round; stroke-linejoin:round;">
<circle cx="135.0449" cy="20.5413" r="0.6000" /> 
</g>
<g style="fill:#000000; fill-opacity:0.0; 
stroke:#000000; stroke-width:0.4800; stroke-opacity:1; 
stroke-linecap:round; stroke-linejoin:round;">
<path d="M134.4449 19.1612
L134.4449 21.9213
" />
<path d="M134.4449 21.9213 A0.6000 0.6000 0.0 0 0 135.6450 21.9213" />
<path d="M135.6450 21.9213
L135.6450 19.1612
" />
<path d="M135.6450 19.1612 A0.6000 0.6000 0.0 0 0 134.4449 19.1612" />
</g>
<g style="fill:#000000; fill-opacity:0.0; 
stroke:#000000; stroke-width:0.1200; stroke-opacity:1; 
stroke-linecap:round; stroke-linejoin:round;">
<circle cx="161.8057" cy="9.5010" r="0.6000" /> 
</g>
<g style="fill:#000000; fill-opacity:0.0; 
stroke:#000000; stroke-width:0.4800; stroke-opacity:1; 
stroke-linecap:round; stroke-linejoin:round;">
<path d="M161.2057 8.1209
L161.2057 10.8810
" />
<path d="M161.2057 10.8810 A0.6000 0.6000 0.0 0 0 162.4057 10.8810" />
<path d="M162.4057 10.8810
L162.4057 8.1209
" />
<path d="M162.4057 8.1209 A0.6000 0.6000 0.0 0 0 161.2057 8.1209" />
</g>
<g style="fill:#000000; fill-opacity:0.0; 
stroke:#000000; stroke-width:0.1200; stroke-opacity:1; 
stroke-linecap:round; stroke-linejoin:round;">
<circle cx="161.8057" cy="20.5413" r="0.6000" /> 
</g>
<g style="fill:#000000; fill-opacity:0.0; 
stroke:#000000; stroke-width:0.4800; stroke-opacity:1; 
stroke-linecap:round; stroke-linejoin:round;">
<path d="M161.2057 19.1612
L161.2057 21.9213
" />
<path d="M161.2057 21.9213 A0.6000 0.6000 0.0 0 0 162.4057 21.9213" />
<path d="M162.4057 21.9213
L162.4057 19.1612
" />
<path d="M162.4057 19.1612 A0.6000 0.6000 0.0 0 0 161.2057 19.1612" />
<path d="M36.7253 78.0512
L36.7253 82.8513
" />
<path d="M34.3252 80.4513
L39.1253 80.4513
" />
<path d="M45.1106 30.4955
L45.1106 35.2956
" />
<path d="M42.7106 32.8955
L47.5107 32.8955
" />
<path d="M107.6333 90.5542
L107.6333 95.3544
" />
<path d="M105.2333 92.9543
L110.0334 92.9543
" />
<path d="M116.0187 42.9985
L116.0187 47.7986
" />
<path d="M113.6186 45.3985
L118.4188 45.3985
" />
<path d="M181.0383 43.2822
L181.0383 48.0823
" />
<path d="M178.6382 45.6822
L183.4384 45.6822
" />
<path d="M189.3736 90.5542
L189.3736 95.3544
" />
<path d="M186.9736 92.9543
L191.7737 92.9543
" />
<path d="M251.9464 30.7792
L251.9464 35.5793
" />
<path d="M249.5463 33.1792
L254.3465 33.1792
" />
<path d="M260.2817 78.0512
L260.2817 82.8513
" />
<path d="M257.8817 80.4513
L262.6818 80.4513
" />
</g>
<g style="fill:#000000; fill-opacity:0.0; 
stroke:#000000; stroke-width:0.2000; stroke-opacity:1; 
stroke-linecap:round; stroke-linejoin:round;">
<text x="12.0000" y="124.0235"
textLength="14.8667" font-size="2.6667" lengthAdjust="spacingAndGlyphs"
text-anchor="start" opacity="0">Drill Map:</text>
<g class="stroked-text"><desc>Drill Map:</desc>
<path d="M12.6078 123.9383
L12.6078 121.9383
" />
<path d="M12.6078 121.9383
L13.0840 121.9383
" />
<path d="M13.0840 121.9383
L13.3697 122.0335
" />
<path d="M13.3697 122.0335
L13.5602 122.2240
" />
<path d="M13.5602 122.2240
L13.6554 122.4145
" />
<path d="M13.6554 122.4145
L13.7506 122.7955
" />
<path d="M13.7506 122.7955
L13.7506 123.0812
" />
<path d="M13.7506 123.0812
L13.6554 123.4621
" />
<path d="M13.6554 123.4621
L13.5602 123.6526
" />
<path d="M13.5602 123.6526
L13.3697 123.8431
" />
<path d="M13.3697 123.8431
L13.0840 123.9383
" />
<path d="M13.0840 123.9383
L12.6078 123.9383
" />
<path d="M14.6078 123.9383
L14.6078 122.6050
" />
<path d="M14.6078 122.9859
L14.7030 122.7955
" />
<path d="M14.7030 122.7955
L14.7982 122.7002
" />
<path d="M14.7982 122.7002
L14.9887 122.6050
" />
<path d="M14.9887 122.6050
L15.1792 122.6050
" />
<path d="M15.8459 123.9383
L15.8459 122.6050
" />
<path d="M15.8459 121.9383
L15.7506 122.0335
" />
<path d="M15.7506 122.0335
L15.8459 122.1288
" />
<path d="M15.8459 122.1288
L15.9411 122.0335
" />
<path d="M15.9411 122.0335
L15.8459 121.9383
" />
<path d="M15.8459 121.9383
L15.8459 122.1288
" />
<path d="M17.0840 123.9383
L16.8935 123.8431
" />
<path d="M16.8935 123.8431
L16.7982 123.6526
" />
<path d="M16.7982 123.6526
L16.7982 121.9383
" />
<path d="M18.1316 123.9383
L17.9411 123.8431
" />
<path d="M17.9411 123.8431
L17.8459 123.6526
" />
<path d="M17.8459 123.6526
L17.8459 121.9383
" />
<path d="M20.4173 123.9383
L20.4173 121.9383
" />
<path d="M20.4173 121.9383
L21.0840 123.3669
" />
<path d="M21.0840 123.3669
L21.7506 121.9383
" />
<path d="M21.7506 121.9383
L21.7506 123.9383
" />
<path d="M23.5602 123.9383
L23.5602 122.8907
" />
<path d="M23.5602 122.8907
L23.4649 122.7002
" />
<path d="M23.4649 122.7002
L23.2744 122.6050
" />
<path d="M23.2744 122.6050
L22.8935 122.6050
" />
<path d="M22.8935 122.6050
L22.7030 122.7002
" />
<path d="M23.5602 123.8431
L23.3697 123.9383
" />
<path d="M23.3697 123.9383
L22.8935 123.9383
" />
<path d="M22.8935 123.9383
L22.7030 123.8431
" />
<path d="M22.7030 123.8431
L22.6078 123.6526
" />
<path d="M22.6078 123.6526
L22.6078 123.4621
" />
<path d="M22.6078 123.4621
L22.7030 123.2716
" />
<path d="M22.7030 123.2716
L22.8935 123.1764
" />
<path d="M22.8935 123.1764
L23.3697 123.1764
" />
<path d="M23.3697 123.1764
L23.5602 123.0812
" />
<path d="M24.5125 122.6050
L24.5125 124.6050
" />
<path d="M24.5125 122.7002
L24.7030 122.6050
" />
<path d="M24.7030 122.6050
L25.0840 122.6050
" />
<path d="M25.0840 122.6050
L25.2744 122.7002
" />
<path d="M25.2744 122.7002
L25.3697 122.7955
" />
<path d="M25.3697 122.7955
L25.4649 122.9859
" />
<path d="M25.4649 122.9859
L25.4649 123.5574
" />
<path d="M25.4649 123.5574
L25.3697 123.7478
" />
<path d="M25.3697 123.7478
L25.2744 123.8431
" />
<path d="M25.2744 123.8431
L25.0840 123.9383
" />
<path d="M25.0840 123.9383
L24.7030 123.9383
" />
<path d="M24.7030 123.9383
L24.5125 123.8431
" />
<path d="M26.3221 123.7478
L26.4173 123.8431
" />
<path d="M26.4173 123.8431
L26.3221 123.9383
" />
<path d="M26.3221 123.9383
L26.2268 123.8431
" />
<path d="M26.2268 123.8431
L26.3221 123.7478
" />
<path d="M26.3221 123.7478
L26.3221 123.9383
" />
<path d="M26.3221 122.7002
L26.4173 122.7955
" />
<path d="M26.4173 122.7955
L26.3221 122.8907
" />
<path d="M26.3221 122.8907
L26.2268 122.7955
" />
<path d="M26.2268 122.7955
L26.3221 122.7002
" />
<path d="M26.3221 122.7002
L26.3221 122.8907
" />
</g></g>
<g style="fill:#000000; fill-opacity:0.0; 
stroke:#000000; stroke-width:0.0960; stroke-opacity:1; 
stroke-linecap:round; stroke-linejoin:round;">
<path d="M9.0400 126.7435
L10.0000 127.7035
" />
<path d="M10.0000 126.7435
L9.0400 127.7035
" />
</g>
<g style="fill:#000000; fill-opacity:0.0; 
stroke:#000000; stroke-width:0.4800; stroke-opacity:1; 
stroke-linecap:round; stroke-linejoin:round;">
</g>
<g style="fill:#000000; fill-opacity:0.0; 
stroke:#000000; stroke-width:0.2000; stroke-opacity:1; 
stroke-linecap:round; stroke-linejoin:round;">
<text x="12.0000" y="128.2235"
textLength="48.7715" font-size="2.6667" lengthAdjust="spacingAndGlyphs"
text-anchor="start" opacity="0">0.400mm / 0.0157" (97 holes)</text>
<g class="stroked-text"><desc>0.400mm / 0.0157" (97 holes)</desc>
<path d="M12.9887 126.1383
L13.1792 126.1383
" />
<path d="M13.1792 126.1383
L13.3697 126.2335
" />
<path d="M13.3697 126.2335
L13.4649 126.3288
" />
<path d="M13.4649 126.3288
L13.5602 126.5193
" />
<path d="M13.5602 126.5193
L13.6554 126.9002
" />
<path d="M13.6554 126.9002
L13.6554 127.3764
" />
<path d="M13.6554 127.3764
L13.5602 127.7574
" />
<path d="M13.5602 127.7574
L13.4649 127.9478
" />
<path d="M13.4649 127.9478
L13.3697 128.0431
" />
<path d="M13.3697 128.0431
L13.1792 128.1383
" />
<path d="M13.1792 128.1383
L12.9887 128.1383
" />
<path d="M12.9887 128.1383
L12.7982 128.0431
" />
<path d="M12.7982 128.0431
L12.7030 127.9478
" />
<path d="M12.7030 127.9478
L12.6078 127.7574
" />
<path d="M12.6078 127.7574
L12.5125 127.3764
" />
<path d="M12.5125 127.3764
L12.5125 126.9002
" />
<path d="M12.5125 126.9002
L12.6078 126.5193
" />
<path d="M12.6078 126.5193
L12.7030 126.3288
" />
<path d="M12.7030 126.3288
L12.7982 126.2335
" />
<path d="M12.7982 126.2335
L12.9887 126.1383
" />
<path d="M14.5125 127.9478
L14.6078 128.0431
" />
<path d="M14.6078 128.0431
L14.5125 128.1383
" />
<path d="M14.5125 128.1383
L14.4173 128.0431
" />
<path d="M14.4173 128.0431
L14.5125 127.9478
" />
<path d="M14.5125 127.9478
L14.5125 128.1383
" />
<path d="M16.3221 126.8050
L16.3221 128.1383
" />
<path d="M15.8459 126.0431
L15.3697 127.4716
" />
<path d="M15.3697 127.4716
L16.6078 127.4716
" />
<path d="M17.7506 126.1383
L17.9411 126.1383
" />
<path d="M17.9411 126.1383
L18.1316 126.2335
" />
<path d="M18.1316 126.2335
L18.2268 126.3288
" />
<path d="M18.2268 126.3288
L18.3221 126.5193
" />
<path d="M18.3221 126.5193
L18.4173 126.9002
" />
<path d="M18.4173 126.9002
L18.4173 127.3764
" />
<path d="M18.4173 127.3764
L18.3221 127.7574
" />
<path d="M18.3221 127.7574
L18.2268 127.9478
" />
<path d="M18.2268 127.9478
L18.1316 128.0431
" />
<path d="M18.1316 128.0431
L17.9411 128.1383
" />
<path d="M17.9411 128.1383
L17.7506 128.1383
" />
<path d="M17.7506 128.1383
L17.5602 128.0431
" />
<path d="M17.5602 128.0431
L17.4649 127.9478
" />
<path d="M17.4649 127.9478
L17.3697 127.7574
" />
<path d="M17.3697 127.7574
L17.2744 127.3764
" />
<path d="M17.2744 127.3764
L17.2744 126.9002
" />
<path d="M17.2744 126.9002
L17.3697 126.5193
" />
<path d="M17.3697 126.5193
L17.4649 126.3288
" />
<path d="M17.4649 126.3288
L17.5602 126.2335
" />
<path d="M17.5602 126.2335
L17.7506 126.1383
" />
<path d="M19.6554 126.1383
L19.8459 126.1383
" />
<path d="M19.8459 126.1383
L20.0363 126.2335
" />
<path d="M20.0363 126.2335
L20.1316 126.3288
" />
<path d="M20.1316 126.3288
L20.2268 126.5193
" />
<path d="M20.2268 126.5193
L20.3221 126.9002
" />
<path d="M20.3221 126.9002
L20.3221 127.3764
" />
<path d="M20.3221 127.3764
L20.2268 127.7574
" />
<path d="M20.2268 127.7574
L20.1316 127.9478
" />
<path d="M20.1316 127.9478
L20.0363 128.0431
" />
<path d="M20.0363 128.0431
L19.8459 128.1383
" />
<path d="M19.8459 128.1383
L19.6554 128.1383
" />
<path d="M19.6554 128.1383
L19.4649 128.0431
" />
<path d="M19.4649 128.0431
L19.3697 127.9478
" />
<path d="M19.3697 127.9478
L19.2744 127.7574
" />
<path d="M19.2744 127.7574
L19.1792 127.3764
" />
<path d="M19.1792 127.3764
L19.1792 126.9002
" />
<path d="M19.1792 126.9002
L19.2744 126.5193
" />
<path d="M19.2744 126.5193
L19.3697 126.3288
" />
<path d="M19.3697 126.3288
L19.4649 126.2335
" />
<path d="M19.4649 126.2335
L19.6554 126.1383
" />
<path d="M21.1792 128.1383
L21.1792 126.8050
" />
<path d="M21.1792 126.9955
L21.2744 126.9002
" />
<path d="M21.2744 126.9002
L21.4649 126.8050
" />
<path d="M21.4649 126.8050
L21.7506 126.8050
" />
<path d="M21.7506 126.8050
L21.9411 126.9002
" />
<path d="M21.9411 126.9002
L22.0364 127.0907
" />
<path d="M22.0364 127.0907
L22.0364 128.1383
" />
<path d="M22.0364 127.0907
L22.1316 126.9002
" />
<path d="M22.1316 126.9002
L22.3221 126.8050
" />
<path d="M22.3221 126.8050
L22.6078 126.8050
" />
<path d="M22.6078 126.8050
L22.7983 126.9002
" />
<path d="M22.7983 126.9002
L22.8935 127.0907
" />
<path d="M22.8935 127.0907
L22.8935 128.1383
" />
<path d="M23.8459 128.1383
L23.8459 126.8050
" />
<path d="M23.8459 126.9955
L23.9411 126.9002
" />
<path d="M23.9411 126.9002
L24.1316 126.8050
" />
<path d="M24.1316 126.8050
L24.4173 126.8050
" />
<path d="M24.4173 126.8050
L24.6078 126.9002
" />
<path d="M24.6078 126.9002
L24.7030 127.0907
" />
<path d="M24.7030 127.0907
L24.7030 128.1383
" />
<path d="M24.7030 127.0907
L24.7983 126.9002
" />
<path d="M24.7983 126.9002
L24.9887 126.8050
" />
<path d="M24.9887 126.8050
L25.2744 126.8050
" />
<path d="M25.2744 126.8050
L25.4649 126.9002
" />
<path d="M25.4649 126.9002
L25.5602 127.0907
" />
<path d="M25.5602 127.0907
L25.5602 128.1383
" />
<path d="M29.4649 126.0431
L27.7506 128.6145
" />
<path d="M32.0364 126.1383
L32.2268 126.1383
" />
<path d="M32.2268 126.1383
L32.4173 126.2335
" />
<path d="M32.4173 126.2335
L32.5125 126.3288
" />
<path d="M32.5125 126.3288
L32.6078 126.5193
" />
<path d="M32.6078 126.5193
L32.7030 126.9002
" />
<path d="M32.7030 126.9002
L32.7030 127.3764
" />
<path d="M32.7030 127.3764
L32.6078 127.7574
" />
<path d="M32.6078 127.7574
L32.5125 127.9478
" />
<path d="M32.5125 127.9478
L32.4173 128.0431
" />
<path d="M32.4173 128.0431
L32.2268 128.1383
" />
<path d="M32.2268 128.1383
L32.0364 128.1383
" />
<path d="M32.0364 128.1383
L31.8459 128.0431
" />
<path d="M31.8459 128.0431
L31.7506 127.9478
" />
<path d="M31.7506 127.9478
L31.6554 127.7574
" />
<path d="M31.6554 127.7574
L31.5602 127.3764
" />
<path d="M31.5602 127.3764
L31.5602 126.9002
" />
<path d="M31.5602 126.9002
L31.6554 126.5193
" />
<path d="M31.6554 126.5193
L31.7506 126.3288
" />
<path d="M31.7506 126.3288
L31.8459 126.2335
" />
<path d="M31.8459 126.2335
L32.0364 126.1383
" />
<path d="M33.5602 127.9478
L33.6554 128.0431
" />
<path d="M33.6554 128.0431
L33.5602 128.1383
" />
<path d="M33.5602 128.1383
L33.4649 128.0431
" />
<path d="M33.4649 128.0431
L33.5602 127.9478
" />
<path d="M33.5602 127.9478
L33.5602 128.1383
" />
<path d="M34.8935 126.1383
L35.0840 126.1383
" />
<path d="M35.0840 126.1383
L35.2745 126.2335
" />
<path d="M35.2745 126.2335
L35.3697 126.3288
" />
<path d="M35.3697 126.3288
L35.4649 126.5193
" />
<path d="M35.4649 126.5193
L35.5602 126.9002
" />
<path d="M35.5602 126.9002
L35.5602 127.3764
" />
<path d="M35.5602 127.3764
L35.4649 127.7574
" />
<path d="M35.4649 127.7574
L35.3697 127.9478
" />
<path d="M35.3697 127.9478
L35.2745 128.0431
" />
<path d="M35.2745 128.0431
L35.0840 128.1383
" />
<path d="M35.0840 128.1383
L34.8935 128.1383
" />
<path d="M34.8935 128.1383
L34.7030 128.0431
" />
<path d="M34.7030 128.0431
L34.6078 127.9478
" />
<path d="M34.6078 127.9478
L34.5125 127.7574
" />
<path d="M34.5125 127.7574
L34.4173 127.3764
" />
<path d="M34.4173 127.3764
L34.4173 126.9002
" />
<path d="M34.4173 126.9002
L34.5125 126.5193
" />
<path d="M34.5125 126.5193
L34.6078 126.3288
" />
<path d="M34.6078 126.3288
L34.7030 126.2335
" />
<path d="M34.7030 126.2335
L34.8935 126.1383
" />
<path d="M37.4649 128.1383
L36.3221 128.1383
" />
<path d="M36.8935 128.1383
L36.8935 126.1383
" />
<path d="M36.8935 126.1383
L36.7030 126.4240
" />
<path d="M36.7030 126.4240
L36.5125 126.6145
" />
<path d="M36.5125 126.6145
L36.3221 126.7097
" />
<path d="M39.2745 126.1383
L38.3221 126.1383
" />
<path d="M38.3221 126.1383
L38.2268 127.0907
" />
<path d="M38.2268 127.0907
L38.3221 126.9955
" />
<path d="M38.3221 126.9955
L38.5126 126.9002
" />
<path d="M38.5126 126.9002
L38.9887 126.9002
" />
<path d="M38.9887 126.9002
L39.1792 126.9955
" />
<path d="M39.1792 126.9955
L39.2745 127.0907
" />
<path d="M39.2745 127.0907
L39.3697 127.2812
" />
<path d="M39.3697 127.2812
L39.3697 127.7574
" />
<path d="M39.3697 127.7574
L39.2745 127.9478
" />
<path d="M39.2745 127.9478
L39.1792 128.0431
" />
<path d="M39.1792 128.0431
L38.9887 128.1383
" />
<path d="M38.9887 128.1383
L38.5126 128.1383
" />
<path d="M38.5126 128.1383
L38.3221 128.0431
" />
<path d="M38.3221 128.0431
L38.2268 127.9478
" />
<path d="M40.0364 126.1383
L41.3697 126.1383
" />
<path d="M41.3697 126.1383
L40.5126 128.1383
" />
<path d="M42.0364 126.1383
L42.0364 126.5193
" />
<path d="M42.7983 126.1383
L42.7983 126.5193
" />
<path d="M45.7507 128.9002
L45.6554 128.8050
" />
<path d="M45.6554 128.8050
L45.4649 128.5193
" />
<path d="M45.4649 128.5193
L45.3697 128.3288
" />
<path d="M45.3697 128.3288
L45.2745 128.0431
" />
<path d="M45.2745 128.0431
L45.1792 127.5669
" />
<path d="M45.1792 127.5669
L45.1792 127.1859
" />
<path d="M45.1792 127.1859
L45.2745 126.7097
" />
<path d="M45.2745 126.7097
L45.3697 126.4240
" />
<path d="M45.3697 126.4240
L45.4649 126.2335
" />
<path d="M45.4649 126.2335
L45.6554 125.9478
" />
<path d="M45.6554 125.9478
L45.7507 125.8526
" />
<path d="M46.6078 128.1383
L46.9888 128.1383
" />
<path d="M46.9888 128.1383
L47.1792 128.0431
" />
<path d="M47.1792 128.0431
L47.2745 127.9478
" />
<path d="M47.2745 127.9478
L47.4649 127.6621
" />
<path d="M47.4649 127.6621
L47.5602 127.2812
" />
<path d="M47.5602 127.2812
L47.5602 126.5193
" />
<path d="M47.5602 126.5193
L47.4649 126.3288
" />
<path d="M47.4649 126.3288
L47.3697 126.2335
" />
<path d="M47.3697 126.2335
L47.1792 126.1383
" />
<path d="M47.1792 126.1383
L46.7983 126.1383
" />
<path d="M46.7983 126.1383
L46.6078 126.2335
" />
<path d="M46.6078 126.2335
L46.5126 126.3288
" />
<path d="M46.5126 126.3288
L46.4173 126.5193
" />
<path d="M46.4173 126.5193
L46.4173 126.9955
" />
<path d="M46.4173 126.9955
L46.5126 127.1859
" />
<path d="M46.5126 127.1859
L46.6078 127.2812
" />
<path d="M46.6078 127.2812
L46.7983 127.3764
" />
<path d="M46.7983 127.3764
L47.1792 127.3764
" />
<path d="M47.1792 127.3764
L47.3697 127.2812
" />
<path d="M47.3697 127.2812
L47.4649 127.1859
" />
<path d="M47.4649 127.1859
L47.5602 126.9955
" />
<path d="M48.2268 126.1383
L49.5602 126.1383
" />
<path d="M49.5602 126.1383
L48.7030 128.1383
" />
<path d="M51.8459 128.1383
L51.8459 126.1383
" />
<path d="M52.7030 128.1383
L52.7030 127.0907
" />
<path d="M52.7030 127.0907
L52.6078 126.9002
" />
<path d="M52.6078 126.9002
L52.4173 126.8050
" />
<path d="M52.4173 126.8050
L52.1316 126.8050
" />
<path d="M52.1316 126.8050
L51.9411 126.9002
" />
<path d="M51.9411 126.9002
L51.8459 126.9955
" />
<path d="M53.9411 128.1383
L53.7507 128.0431
" />
<path d="M53.7507 128.0431
L53.6554 127.9478
" />
<path d="M53.6554 127.9478
L53.5602 127.7574
" />
<path d="M53.5602 127.7574
L53.5602 127.1859
" />
<path d="M53.5602 127.1859
L53.6554 126.9955
" />
<path d="M53.6554 126.9955
L53.7507 126.9002
" />
<path d="M53.7507 126.9002
L53.9411 126.8050
" />
<path d="M53.9411 126.8050
L54.2269 126.8050
" />
<path d="M54.2269 126.8050
L54.4173 126.9002
" />
<path d="M54.4173 126.9002
L54.5126 126.9955
" />
<path d="M54.5126 126.9955
L54.6078 127.1859
" />
<path d="M54.6078 127.1859
L54.6078 127.7574
" />
<path d="M54.6078 127.7574
L54.5126 127.9478
" />
<path d="M54.5126 127.9478
L54.4173 128.0431
" />
<path d="M54.4173 128.0431
L54.2269 128.1383
" />
<path d="M54.2269 128.1383
L53.9411 128.1383
" />
<path d="M55.7507 128.1383
L55.5602 128.0431
" />
<path d="M55.5602 128.0431
L55.4649 127.8526
" />
<path d="M55.4649 127.8526
L55.4649 126.1383
" />
<path d="M57.2745 128.0431
L57.0840 128.1383
" />
<path d="M57.0840 128.1383
L56.7030 128.1383
" />
<path d="M56.7030 128.1383
L56.5126 128.0431
" />
<path d="M56.5126 128.0431
L56.4173 127.8526
" />
<path d="M56.4173 127.8526
L56.4173 127.0907
" />
<path d="M56.4173 127.0907
L56.5126 126.9002
" />
<path d="M56.5126 126.9002
L56.7030 126.8050
" />
<path d="M56.7030 126.8050
L57.0840 126.8050
" />
<path d="M57.0840 126.8050
L57.2745 126.9002
" />
<path d="M57.2745 126.9002
L57.3697 127.0907
" />
<path d="M57.3697 127.0907
L57.3697 127.2812
" />
<path d="M57.3697 127.2812
L56.4173 127.4716
" />
<path d="M58.1316 128.0431
L58.3221 128.1383
" />
<path d="M58.3221 128.1383
L58.7030 128.1383
" />
<path d="M58.7030 128.1383
L58.8935 128.0431
" />
<path d="M58.8935 128.0431
L58.9888 127.8526
" />
<path d="M58.9888 127.8526
L58.9888 127.7574
" />
<path d="M58.9888 127.7574
L58.8935 127.5669
" />
<path d="M58.8935 127.5669
L58.7030 127.4716
" />
<path d="M58.7030 127.4716
L58.4173 127.4716
" />
<path d="M58.4173 127.4716
L58.2269 127.3764
" />
<path d="M58.2269 127.3764
L58.1316 127.1859
" />
<path d="M58.1316 127.1859
L58.1316 127.0907
" />
<path d="M58.1316 127.0907
L58.2269 126.9002
" />
<path d="M58.2269 126.9002
L58.4173 126.8050
" />
<path d="M58.4173 126.8050
L58.7030 126.8050
" />
<path d="M58.7030 126.8050
L58.8935 126.9002
" />
<path d="M59.6554 128.9002
L59.7507 128.8050
" />
<path d="M59.7507 128.8050
L59.9411 128.5193
" />
<path d="M59.9411 128.5193
L60.0364 128.3288
" />
<path d="M60.0364 128.3288
L60.1316 128.0431
" />
<path d="M60.1316 128.0431
L60.2269 127.5669
" />
<path d="M60.2269 127.5669
L60.2269 127.1859
" />
<path d="M60.2269 127.1859
L60.1316 126.7097
" />
<path d="M60.1316 126.7097
L60.0364 126.4240
" />
<path d="M60.0364 126.4240
L59.9411 126.2335
" />
<path d="M59.9411 126.2335
L59.7507 125.9478
" />
<path d="M59.7507 125.9478
L59.6554 125.8526
" />
</g></g>
<g style="fill:#000000; fill-opacity:0.0; 
stroke:#000000; stroke-width:0.1200; stroke-opacity:1; 
stroke-linecap:round; stroke-linejoin:round;">
<circle cx="9.4000" cy="129.8635" r="0.6000" /> 
</g>
<g style="fill:#000000; fill-opacity:0.0; 
stroke:#000000; stroke-width:0.4800; stroke-opacity:1; 
stroke-linecap:round; stroke-linejoin:round;">
</g>
<g style="fill:#000000; fill-opacity:0.0; 
stroke:#000000; stroke-width:0.2000; stroke-opacity:1; 
stroke-linecap:round; stroke-linejoin:round;">
<text x="12.0000" y="130.8635"
textLength="63.0572" font-size="2.6667" lengthAdjust="spacingAndGlyphs"
text-anchor="start" opacity="0">0.500mm / 0.0197" (0 holes + 4 slots)</text>
<g class="stroked-text"><desc>0.500mm / 0.0197" (0 holes + 4 slots)</desc>
<path d="M12.9887 128.7783
L13.1792 128.7783
" />
<path d="M13.1792 128.7783
L13.3697 128.8735
" />
<path d="M13.3697 128.8735
L13.4649 128.9688
" />
<path d="M13.4649 128.9688
L13.5602 129.1593
" />
<path d="M13.5602 129.1593
L13.6554 129.5402
" />
<path d="M13.6554 129.5402
L13.6554 130.0164
" />
<path d="M13.6554 130.0164
L13.5602 130.3974
" />
<path d="M13.5602 130.3974
L13.4649 130.5878
" />
<path d="M13.4649 130.5878
L13.3697 130.6831
" />
<path d="M13.3697 130.6831
L13.1792 130.7783
" />
<path d="M13.1792 130.7783
L12.9887 130.7783
" />
<path d="M12.9887 130.7783
L12.7982 130.6831
" />
<path d="M12.7982 130.6831
L12.7030 130.5878
" />
<path d="M12.7030 130.5878
L12.6078 130.3974
" />
<path d="M12.6078 130.3974
L12.5125 130.0164
" />
<path d="M12.5125 130.0164
L12.5125 129.5402
" />
<path d="M12.5125 129.5402
L12.6078 129.1593
" />
<path d="M12.6078 129.1593
L12.7030 128.9688
" />
<path d="M12.7030 128.9688
L12.7982 128.8735
" />
<path d="M12.7982 128.8735
L12.9887 128.7783
" />
<path d="M14.5125 130.5878
L14.6078 130.6831
" />
<path d="M14.6078 130.6831
L14.5125 130.7783
" />
<path d="M14.5125 130.7783
L14.4173 130.6831
" />
<path d="M14.4173 130.6831
L14.5125 130.5878
" />
<path d="M14.5125 130.5878
L14.5125 130.7783
" />
<path d="M16.4173 128.7783
L15.4649 128.7783
" />
<path d="M15.4649 128.7783
L15.3697 129.7307
" />
<path d="M15.3697 129.7307
L15.4649 129.6355
" />
<path d="M15.4649 129.6355
L15.6554 129.5402
" />
<path d="M15.6554 129.5402
L16.1316 129.5402
" />
<path d="M16.1316 129.5402
L16.3221 129.6355
" />
<path d="M16.3221 129.6355
L16.4173 129.7307
" />
<path d="M16.4173 129.7307
L16.5125 129.9212
" />
<path d="M16.5125 129.9212
L16.5125 130.3974
" />
<path d="M16.5125 130.3974
L16.4173 130.5878
" />
<path d="M16.4173 130.5878
L16.3221 130.6831
" />
<path d="M16.3221 130.6831
L16.1316 130.7783
" />
<path d="M16.1316 130.7783
L15.6554 130.7783
" />
<path d="M15.6554 130.7783
L15.4649 130.6831
" />
<path d="M15.4649 130.6831
L15.3697 130.5878
" />
<path d="M17.7506 128.7783
L17.9411 128.7783
" />
<path d="M17.9411 128.7783
L18.1316 128.8735
" />
<path d="M18.1316 128.8735
L18.2268 128.9688
" />
<path d="M18.2268 128.9688
L18.3221 129.1593
" />
<path d="M18.3221 129.1593
L18.4173 129.5402
" />
<path d="M18.4173 129.5402
L18.4173 130.0164
" />
<path d="M18.4173 130.0164
L18.3221 130.3974
" />
<path d="M18.3221 130.3974
L18.2268 130.5878
" />
<path d="M18.2268 130.5878
L18.1316 130.6831
" />
<path d="M18.1316 130.6831
L17.9411 130.7783
" />
<path d="M17.9411 130.7783
L17.7506 130.7783
" />
<path d="M17.7506 130.7783
L17.5602 130.6831
" />
<path d="M17.5602 130.6831
L17.4649 130.5878
" />
<path d="M17.4649 130.5878
L17.3697 130.3974
" />
<path d="M17.3697 130.3974
L17.2744 130.0164
" />
<path d="M17.2744 130.0164
L17.2744 129.5402
" />
<path d="M17.2744 129.5402
L17.3697 129.1593
" />
<path d="M17.3697 129.1593
L17.4649 128.9688
" />
<path d="M17.4649 128.9688
L17.5602 128.8735
" />
<path d="M17.5602 128.8735
L17.7506 128.7783
" />
<path d="M19.6554 128.7783
L19.8459 128.7783
" />
<path d="M19.8459 128.7783
L20.0363 128.8735
" />
<path d="M20.0363 128.8735
L20.1316 128.9688
" />
<path d="M20.1316 128.9688
L20.2268 129.1593
" />
<path d="M20.2268 129.1593
L20.3221 129.5402
" />
<path d="M20.3221 129.5402
L20.3221 130.0164
" />
<path d="M20.3221 130.0164
L20.2268 130.3974
" />
<path d="M20.2268 130.3974
L20.1316 130.5878
" />
<path d="M20.1316 130.5878
L20.0363 130.6831
" />
<path d="M20.0363 130.6831
L19.8459 130.7783
" />
<path d="M19.8459 130.7783
L19.6554 130.7783
" />
<path d="M19.6554 130.7783
L19.4649 130.6831
" />
<path d="M19.4649 130.6831
L19.3697 130.5878
" />
<path d="M19.3697 130.5878
L19.2744 130.3974
" />
<path d="M19.2744 130.3974
L19.1792 130.0164
" />
<path d="M19.1792 130.0164
L19.1792 129.5402
" />
<path d="M19.1792 129.5402
L19.2744 129.1593
" />
<path d="M19.2744 129.1593
L19.3697 128.9688
" />
<path d="M19.3697 128.9688
L19.4649 128.8735
" />
<path d="M19.4649 128.8735
L19.6554 128.7783
" />
<path d="M21.1792 130.7783
L21.1792 129.4450
" />
<path d="M21.1792 129.6355
L21.2744 129.5402
" />
<path d="M21.2744 129.5402
L21.4649 129.4450
" />
<path d="M21.4649 129.4450
L21.7506 129.4450
" />
<path d="M21.7506 129.4450
L21.9411 129.5402
" />
<path d="M21.9411 129.5402
L22.0364 129.7307
" />
<path d="M22.0364 129.7307
L22.0364 130.7783
" />
<path d="M22.0364 129.7307
L22.1316 129.5402
" />
<path d="M22.1316 129.5402
L22.3221 129.4450
" />
<path d="M22.3221 129.4450
L22.6078 129.4450
" />
<path d="M22.6078 129.4450
L22.7983 129.5402
" />
<path d="M22.7983 129.5402
L22.8935 129.7307
" />
<path d="M22.8935 129.7307
L22.8935 130.7783
" />
<path d="M23.8459 130.7783
L23.8459 129.4450
" />
<path d="M23.8459 129.6355
L23.9411 129.5402
" />
<path d="M23.9411 129.5402
L24.1316 129.4450
" />
<path d="M24.1316 129.4450
L24.4173 129.4450
" />
<path d="M24.4173 129.4450
L24.6078 129.5402
" />
<path d="M24.6078 129.5402
L24.7030 129.7307
" />
<path d="M24.7030 129.7307
L24.7030 130.7783
" />
<path d="M24.7030 129.7307
L24.7983 129.5402
" />
<path d="M24.7983 129.5402
L24.9887 129.4450
" />
<path d="M24.9887 129.4450
L25.2744 129.4450
" />
<path d="M25.2744 129.4450
L25.4649 129.5402
" />
<path d="M25.4649 129.5402
L25.5602 129.7307
" />
<path d="M25.5602 129.7307
L25.5602 130.7783
" />
<path d="M29.4649 128.6831
L27.7506 131.2545
" />
<path d="M32.0364 128.7783
L32.2268 128.7783
" />
<path d="M32.2268 128.7783
L32.4173 128.8735
" />
<path d="M32.4173 128.8735
L32.5125 128.9688
" />
<path d="M32.5125 128.9688
L32.6078 129.1593
" />
<path d="M32.6078 129.1593
L32.7030 129.5402
" />
<path d="M32.7030 129.5402
L32.7030 130.0164
" />
<path d="M32.7030 130.0164
L32.6078 130.3974
" />
<path d="M32.6078 130.3974
L32.5125 130.5878
" />
<path d="M32.5125 130.5878
L32.4173 130.6831
" />
<path d="M32.4173 130.6831
L32.2268 130.7783
" />
<path d="M32.2268 130.7783
L32.0364 130.7783
" />
<path d="M32.0364 130.7783
L31.8459 130.6831
" />
<path d="M31.8459 130.6831
L31.7506 130.5878
" />
<path d="M31.7506 130.5878
L31.6554 130.3974
" />
<path d="M31.6554 130.3974
L31.5602 130.0164
" />
<path d="M31.5602 130.0164
L31.5602 129.5402
" />
<path d="M31.5602 129.5402
L31.6554 129.1593
" />
<path d="M31.6554 129.1593
L31.7506 128.9688
" />
<path d="M31.7506 128.9688
L31.8459 128.8735
" />
<path d="M31.8459 128.8735
L32.0364 128.7783
" />
<path d="M33.5602 130.5878
L33.6554 130.6831
" />
<path d="M33.6554 130.6831
L33.5602 130.7783
" />
<path d="M33.5602 130.7783
L33.4649 130.6831
" />
<path d="M33.4649 130.6831
L33.5602 130.5878
" />
<path d="M33.5602 130.5878
L33.5602 130.7783
" />
<path d="M34.8935 128.7783
L35.0840 128.7783
" />
<path d="M35.0840 128.7783
L35.2745 128.8735
" />
<path d="M35.2745 128.8735
L35.3697 128.9688
" />
<path d="M35.3697 128.9688
L35.4649 129.1593
" />
<path d="M35.4649 129.1593
L35.5602 129.5402
" />
<path d="M35.5602 129.5402
L35.5602 130.0164
" />
<path d="M35.5602 130.0164
L35.4649 130.3974
" />
<path d="M35.4649 130.3974
L35.3697 130.5878
" />
<path d="M35.3697 130.5878
L35.2745 130.6831
" />
<path d="M35.2745 130.6831
L35.0840 130.7783
" />
<path d="M35.0840 130.7783
L34.8935 130.7783
" />
<path d="M34.8935 130.7783
L34.7030 130.6831
" />
<path d="M34.7030 130.6831
L34.6078 130.5878
" />
<path d="M34.6078 130.5878
L34.5125 130.3974
" />
<path d="M34.5125 130.3974
L34.4173 130.0164
" />
<path d="M34.4173 130.0164
L34.4173 129.5402
" />
<path d="M34.4173 129.5402
L34.5125 129.1593
" />
<path d="M34.5125 129.1593
L34.6078 128.9688
" />
<path d="M34.6078 128.9688
L34.7030 128.8735
" />
<path d="M34.7030 128.8735
L34.8935 128.7783
" />
<path d="M37.4649 130.7783
L36.3221 130.7783
" />
<path d="M36.8935 130.7783
L36.8935 128.7783
" />
<path d="M36.8935 128.7783
L36.7030 129.0640
" />
<path d="M36.7030 129.0640
L36.5125 129.2545
" />
<path d="M36.5125 129.2545
L36.3221 129.3497
" />
<path d="M38.4173 130.7783
L38.7983 130.7783
" />
<path d="M38.7983 130.7783
L38.9887 130.6831
" />
<path d="M38.9887 130.6831
L39.0840 130.5878
" />
<path d="M39.0840 130.5878
L39.2745 130.3021
" />
<path d="M39.2745 130.3021
L39.3697 129.9212
" />
<path d="M39.3697 129.9212
L39.3697 129.1593
" />
<path d="M39.3697 129.1593
L39.2745 128.9688
" />
<path d="M39.2745 128.9688
L39.1792 128.8735
" />
<path d="M39.1792 128.8735
L38.9887 128.7783
" />
<path d="M38.9887 128.7783
L38.6078 128.7783
" />
<path d="M38.6078 128.7783
L38.4173 128.8735
" />
<path d="M38.4173 128.8735
L38.3221 128.9688
" />
<path d="M38.3221 128.9688
L38.2268 129.1593
" />
<path d="M38.2268 129.1593
L38.2268 129.6355
" />
<path d="M38.2268 129.6355
L38.3221 129.8259
" />
<path d="M38.3221 129.8259
L38.4173 129.9212
" />
<path d="M38.4173 129.9212
L38.6078 130.0164
" />
<path d="M38.6078 130.0164
L38.9887 130.0164
" />
<path d="M38.9887 130.0164
L39.1792 129.9212
" />
<path d="M39.1792 129.9212
L39.2745 129.8259
" />
<path d="M39.2745 129.8259
L39.3697 129.6355
" />
<path d="M40.0364 128.7783
L41.3697 128.7783
" />
<path d="M41.3697 128.7783
L40.5126 130.7783
" />
<path d="M42.0364 128.7783
L42.0364 129.1593
" />
<path d="M42.7983 128.7783
L42.7983 129.1593
" />
<path d="M45.7507 131.5402
L45.6554 131.4450
" />
<path d="M45.6554 131.4450
L45.4649 131.1593
" />
<path d="M45.4649 131.1593
L45.3697 130.9688
" />
<path d="M45.3697 130.9688
L45.2745 130.6831
" />
<path d="M45.2745 130.6831
L45.1792 130.2069
" />
<path d="M45.1792 130.2069
L45.1792 129.8259
" />
<path d="M45.1792 129.8259
L45.2745 129.3497
" />
<path d="M45.2745 129.3497
L45.3697 129.0640
" />
<path d="M45.3697 129.0640
L45.4649 128.8735
" />
<path d="M45.4649 128.8735
L45.6554 128.5878
" />
<path d="M45.6554 128.5878
L45.7507 128.4926
" />
<path d="M46.8935 128.7783
L47.0840 128.7783
" />
<path d="M47.0840 128.7783
L47.2745 128.8735
" />
<path d="M47.2745 128.8735
L47.3697 128.9688
" />
<path d="M47.3697 128.9688
L47.4649 129.1593
" />
<path d="M47.4649 129.1593
L47.5602 129.5402
" />
<path d="M47.5602 129.5402
L47.5602 130.0164
" />
<path d="M47.5602 130.0164
L47.4649 130.3974
" />
<path d="M47.4649 130.3974
L47.3697 130.5878
" />
<path d="M47.3697 130.5878
L47.2745 130.6831
" />
<path d="M47.2745 130.6831
L47.0840 130.7783
" />
<path d="M47.0840 130.7783
L46.8935 130.7783
" />
<path d="M46.8935 130.7783
L46.7030 130.6831
" />
<path d="M46.7030 130.6831
L46.6078 130.5878
" />
<path d="M46.6078 130.5878
L46.5126 130.3974
" />
<path d="M46.5126 130.3974
L46.4173 130.0164
" />
<path d="M46.4173 130.0164
L46.4173 129.5402
" />
<path d="M46.4173 129.5402
L46.5126 129.1593
" />
<path d="M46.5126 129.1593
L46.6078 128.9688
" />
<path d="M46.6078 128.9688
L46.7030 128.8735
" />
<path d="M46.7030 128.8735
L46.8935 128.7783
" />
<path d="M49.9411 130.7783
L49.9411 128.7783
" />
<path d="M50.7983 130.7783
L50.7983 129.7307
" />
<path d="M50.7983 129.7307
L50.7030 129.5402
" />
<path d="M50.7030 129.5402
L50.5126 129.4450
" />
<path d="M50.5126 129.4450
L50.2269 129.4450
" />
<path d="M50.2269 129.4450
L50.0364 129.5402
" />
<path d="M50.0364 129.5402
L49.9411 129.6355
" />
<path d="M52.0364 130.7783
L51.8459 130.6831
" />
<path d="M51.8459 130.6831
L51.7507 130.5878
" />
<path d="M51.7507 130.5878
L51.6554 130.3974
" />
<path d="M51.6554 130.3974
L51.6554 129.8259
" />
<path d="M51.6554 129.8259
L51.7507 129.6355
" />
<path d="M51.7507 129.6355
L51.8459 129.5402
" />
<path d="M51.8459 129.5402
L52.0364 129.4450
" />
<path d="M52.0364 129.4450
L52.3221 129.4450
" />
<path d="M52.3221 129.4450
L52.5126 129.5402
" />
<path d="M52.5126 129.5402
L52.6078 129.6355
" />
<path d="M52.6078 129.6355
L52.7030 129.8259
" />
<path d="M52.7030 129.8259
L52.7030 130.3974
" />
<path d="M52.7030 130.3974
L52.6078 130.5878
" />
<path d="M52.6078 130.5878
L52.5126 130.6831
" />
<path d="M52.5126 130.6831
L52.3221 130.7783
" />
<path d="M52.3221 130.7783
L52.0364 130.7783
" />
<path d="M53.8459 130.7783
L53.6554 130.6831
" />
<path d="M53.6554 130.6831
L53.5602 130.4926
" />
<path d="M53.5602 130.4926
L53.5602 128.7783
" />
<path d="M55.3697 130.6831
L55.1792 130.7783
" />
<path d="M55.1792 130.7783
L54.7983 130.7783
" />
<path d="M54.7983 130.7783
L54.6078 130.6831
" />
<path d="M54.6078 130.6831
L54.5126 130.4926
" />
<path d="M54.5126 130.4926
L54.5126 129.7307
" />
<path d="M54.5126 129.7307
L54.6078 129.5402
" />
<path d="M54.6078 129.5402
L54.7983 129.4450
" />
<path d="M54.7983 129.4450
L55.1792 129.4450
" />
<path d="M55.1792 129.4450
L55.3697 129.5402
" />
<path d="M55.3697 129.5402
L55.4649 129.7307
" />
<path d="M55.4649 129.7307
L55.4649 129.9212
" />
<path d="M55.4649 129.9212
L54.5126 130.1116
" />
<path d="M56.2269 130.6831
L56.4173 130.7783
" />
<path d="M56.4173 130.7783
L56.7983 130.7783
" />
<path d="M56.7983 130.7783
L56.9888 130.6831
" />
<path d="M56.9888 130.6831
L57.0840 130.4926
" />
<path d="M57.0840 130.4926
L57.0840 130.3974
" />
<path d="M57.0840 130.3974
L56.9888 130.2069
" />
<path d="M56.9888 130.2069
L56.7983 130.1116
" />
<path d="M56.7983 130.1116
L56.5126 130.1116
" />
<path d="M56.5126 130.1116
L56.3221 130.0164
" />
<path d="M56.3221 130.0164
L56.2269 129.8259
" />
<path d="M56.2269 129.8259
L56.2269 129.7307
" />
<path d="M56.2269 129.7307
L56.3221 129.5402
" />
<path d="M56.3221 129.5402
L56.5126 129.4450
" />
<path d="M56.5126 129.4450
L56.7983 129.4450
" />
<path d="M56.7983 129.4450
L56.9888 129.5402
" />
<path d="M59.4650 130.0164
L60.9888 130.0164
" />
<path d="M60.2269 130.7783
L60.2269 129.2545
" />
<path d="M64.3221 129.4450
L64.3221 130.7783
" />
<path d="M63.8459 128.6831
L63.3697 130.1116
" />
<path d="M63.3697 130.1116
L64.6078 130.1116
" />
<path d="M66.7983 130.6831
L66.9888 130.7783
" />
<path d="M66.9888 130.7783
L67.3697 130.7783
" />
<path d="M67.3697 130.7783
L67.5602 130.6831
" />
<path d="M67.5602 130.6831
L67.6554 130.4926
" />
<path d="M67.6554 130.4926
L67.6554 130.3974
" />
<path d="M67.6554 130.3974
L67.5602 130.2069
" />
<path d="M67.5602 130.2069
L67.3697 130.1116
" />
<path d="M67.3697 130.1116
L67.0840 130.1116
" />
<path d="M67.0840 130.1116
L66.8935 130.0164
" />
<path d="M66.8935 130.0164
L66.7983 129.8259
" />
<path d="M66.7983 129.8259
L66.7983 129.7307
" />
<path d="M66.7983 129.7307
L66.8935 129.5402
" />
<path d="M66.8935 129.5402
L67.0840 129.4450
" />
<path d="M67.0840 129.4450
L67.3697 129.4450
" />
<path d="M67.3697 129.4450
L67.5602 129.5402
" />
<path d="M68.7983 130.7783
L68.6078 130.6831
" />
<path d="M68.6078 130.6831
L68.5126 130.4926
" />
<path d="M68.5126 130.4926
L68.5126 128.7783
" />
<path d="M69.8459 130.7783
L69.6554 130.6831
" />
<path d="M69.6554 130.6831
L69.5602 130.5878
" />
<path d="M69.5602 130.5878
L69.4650 130.3974
" />
<path d="M69.4650 130.3974
L69.4650 129.8259
" />
<path d="M69.4650 129.8259
L69.5602 129.6355
" />
<path d="M69.5602 129.6355
L69.6554 129.5402
" />
<path d="M69.6554 129.5402
L69.8459 129.4450
" />
<path d="M69.8459 129.4450
L70.1316 129.4450
" />
<path d="M70.1316 129.4450
L70.3221 129.5402
" />
<path d="M70.3221 129.5402
L70.4173 129.6355
" />
<path d="M70.4173 129.6355
L70.5126 129.8259
" />
<path d="M70.5126 129.8259
L70.5126 130.3974
" />
<path d="M70.5126 130.3974
L70.4173 130.5878
" />
<path d="M70.4173 130.5878
L70.3221 130.6831
" />
<path d="M70.3221 130.6831
L70.1316 130.7783
" />
<path d="M70.1316 130.7783
L69.8459 130.7783
" />
<path d="M71.0840 129.4450
L71.8459 129.4450
" />
<path d="M71.3697 128.7783
L71.3697 130.4926
" />
<path d="M71.3697 130.4926
L71.4650 130.6831
" />
<path d="M71.4650 130.6831
L71.6554 130.7783
" />
<path d="M71.6554 130.7783
L71.8459 130.7783
" />
<path d="M72.4173 130.6831
L72.6078 130.7783
" />
<path d="M72.6078 130.7783
L72.9888 130.7783
" />
<path d="M72.9888 130.7783
L73.1792 130.6831
" />
<path d="M73.1792 130.6831
L73.2745 130.4926
" />
<path d="M73.2745 130.4926
L73.2745 130.3974
" />
<path d="M73.2745 130.3974
L73.1792 130.2069
" />
<path d="M73.1792 130.2069
L72.9888 130.1116
" />
<path d="M72.9888 130.1116
L72.7031 130.1116
" />
<path d="M72.7031 130.1116
L72.5126 130.0164
" />
<path d="M72.5126 130.0164
L72.4173 129.8259
" />
<path d="M72.4173 129.8259
L72.4173 129.7307
" />
<path d="M72.4173 129.7307
L72.5126 129.5402
" />
<path d="M72.5126 129.5402
L72.7031 129.4450
" />
<path d="M72.7031 129.4450
L72.9888 129.4450
" />
<path d="M72.9888 129.4450
L73.1792 129.5402
" />
<path d="M73.9412 131.5402
L74.0364 131.4450
" />
<path d="M74.0364 131.4450
L74.2269 131.1593
" />
<path d="M74.2269 131.1593
L74.3221 130.9688
" />
<path d="M74.3221 130.9688
L74.4173 130.6831
" />
<path d="M74.4173 130.6831
L74.5126 130.2069
" />
<path d="M74.5126 130.2069
L74.5126 129.8259
" />
<path d="M74.5126 129.8259
L74.4173 129.3497
" />
<path d="M74.4173 129.3497
L74.3221 129.0640
" />
<path d="M74.3221 129.0640
L74.2269 128.8735
" />
<path d="M74.2269 128.8735
L74.0364 128.5878
" />
<path d="M74.0364 128.5878
L73.9412 128.4926
" />
</g><path d="M9.0000 131.5035
L9.0000 133.5035
" />
<path d="M8.0000 132.5035
L10.0000 132.5035
" />
</g>
<g style="fill:#000000; fill-opacity:0.0; 
stroke:#000000; stroke-width:0.4800; stroke-opacity:1; 
stroke-linecap:round; stroke-linejoin:round;">
</g>
<g style="fill:#000000; fill-opacity:0.0; 
stroke:#000000; stroke-width:0.2000; stroke-opacity:1; 
stroke-linecap:round; stroke-linejoin:round;">
<text x="12.0000" y="133.5035"
textLength="46.8667" font-size="2.6667" lengthAdjust="spacingAndGlyphs"
text-anchor="start" opacity="0">2.000mm / 0.0787" (8 holes)</text>
<g class="stroked-text"><desc>2.000mm / 0.0787" (8 holes)</desc>
<path d="M12.5125 131.6088
L12.6078 131.5135
" />
<path d="M12.6078 131.5135
L12.7982 131.4183
" />
<path d="M12.7982 131.4183
L13.2744 131.4183
" />
<path d="M13.2744 131.4183
L13.4649 131.5135
" />
<path d="M13.4649 131.5135
L13.5602 131.6088
" />
<path d="M13.5602 131.6088
L13.6554 131.7993
" />
<path d="M13.6554 131.7993
L13.6554 131.9897
" />
<path d="M13.6554 131.9897
L13.5602 132.2755
" />
<path d="M13.5602 132.2755
L12.4173 133.4183
" />
<path d="M12.4173 133.4183
L13.6554 133.4183
" />
<path d="M14.5125 133.2278
L14.6078 133.3231
" />
<path d="M14.6078 133.3231
L14.5125 133.4183
" />
<path d="M14.5125 133.4183
L14.4173 133.3231
" />
<path d="M14.4173 133.3231
L14.5125 133.2278
" />
<path d="M14.5125 133.2278
L14.5125 133.4183
" />
<path d="M15.8459 131.4183
L16.0363 131.4183
" />
<path d="M16.0363 131.4183
L16.2268 131.5135
" />
<path d="M16.2268 131.5135
L16.3221 131.6088
" />
<path d="M16.3221 131.6088
L16.4173 131.7993
" />
<path d="M16.4173 131.7993
L16.5125 132.1802
" />
<path d="M16.5125 132.1802
L16.5125 132.6564
" />
<path d="M16.5125 132.6564
L16.4173 133.0374
" />
<path d="M16.4173 133.0374
L16.3221 133.2278
" />
<path d="M16.3221 133.2278
L16.2268 133.3231
" />
<path d="M16.2268 133.3231
L16.0363 133.4183
" />
<path d="M16.0363 133.4183
L15.8459 133.4183
" />
<path d="M15.8459 133.4183
L15.6554 133.3231
" />
<path d="M15.6554 133.3231
L15.5602 133.2278
" />
<path d="M15.5602 133.2278
L15.4649 133.0374
" />
<path d="M15.4649 133.0374
L15.3697 132.6564
" />
<path d="M15.3697 132.6564
L15.3697 132.1802
" />
<path d="M15.3697 132.1802
L15.4649 131.7993
" />
<path d="M15.4649 131.7993
L15.5602 131.6088
" />
<path d="M15.5602 131.6088
L15.6554 131.5135
" />
<path d="M15.6554 131.5135
L15.8459 131.4183
" />
<path d="M17.7506 131.4183
L17.9411 131.4183
" />
<path d="M17.9411 131.4183
L18.1316 131.5135
" />
<path d="M18.1316 131.5135
L18.2268 131.6088
" />
<path d="M18.2268 131.6088
L18.3221 131.7993
" />
<path d="M18.3221 131.7993
L18.4173 132.1802
" />
<path d="M18.4173 132.1802
L18.4173 132.6564
" />
<path d="M18.4173 132.6564
L18.3221 133.0374
" />
<path d="M18.3221 133.0374
L18.2268 133.2278
" />
<path d="M18.2268 133.2278
L18.1316 133.3231
" />
<path d="M18.1316 133.3231
L17.9411 133.4183
" />
<path d="M17.9411 133.4183
L17.7506 133.4183
" />
<path d="M17.7506 133.4183
L17.5602 133.3231
" />
<path d="M17.5602 133.3231
L17.4649 133.2278
" />
<path d="M17.4649 133.2278
L17.3697 133.0374
" />
<path d="M17.3697 133.0374
L17.2744 132.6564
" />
<path d="M17.2744 132.6564
L17.2744 132.1802
" />
<path d="M17.2744 132.1802
L17.3697 131.7993
" />
<path d="M17.3697 131.7993
L17.4649 131.6088
" />
<path d="M17.4649 131.6088
L17.5602 131.5135
" />
<path d="M17.5602 131.5135
L17.7506 131.4183
" />
<path d="M19.6554 131.4183
L19.8459 131.4183
" />
<path d="M19.8459 131.4183
L20.0363 131.5135
" />
<path d="M20.0363 131.5135
L20.1316 131.6088
" />
<path d="M20.1316 131.6088
L20.2268 131.7993
" />
<path d="M20.2268 131.7993
L20.3221 132.1802
" />
<path d="M20.3221 132.1802
L20.3221 132.6564
" />
<path d="M20.3221 132.6564
L20.2268 133.0374
" />
<path d="M20.2268 133.0374
L20.1316 133.2278
" />
<path d="M20.1316 133.2278
L20.0363 133.3231
" />
<path d="M20.0363 133.3231
L19.8459 133.4183
" />
<path d="M19.8459 133.4183
L19.6554 133.4183
" />
<path d="M19.6554 133.4183
L19.4649 133.3231
" />
<path d="M19.4649 133.3231
L19.3697 133.2278
" />
<path d="M19.3697 133.2278
L19.2744 133.0374
" />
<path d="M19.2744 133.0374
L19.1792 132.6564
" />
<path d="M19.1792 132.6564
L19.1792 132.1802
" />
<path d="M19.1792 132.1802
L19.2744 131.7993
" />
<path d="M19.2744 131.7993
L19.3697 131.6088
" />
<path d="M19.3697 131.6088
L19.4649 131.5135
" />
<path d="M19.4649 131.5135
L19.6554 131.4183
" />
<path d="M21.1792 133.4183
L21.1792 132.0850
" />
<path d="M21.1792 132.2755
L21.2744 132.1802
" />
<path d="M21.2744 132.1802
L21.4649 132.0850
" />
<path d="M21.4649 132.0850
L21.7506 132.0850
" />
<path d="M21.7506 132.0850
L21.9411 132.1802
" />
<path d="M21.9411 132.1802
L22.0364 132.3707
" />
<path d="M22.0364 132.3707
L22.0364 133.4183
" />
<path d="M22.0364 132.3707
L22.1316 132.1802
" />
<path d="M22.1316 132.1802
L22.3221 132.0850
" />
<path d="M22.3221 132.0850
L22.6078 132.0850
" />
<path d="M22.6078 132.0850
L22.7983 132.1802
" />
<path d="M22.7983 132.1802
L22.8935 132.3707
" />
<path d="M22.8935 132.3707
L22.8935 133.4183
" />
<path d="M23.8459 133.4183
L23.8459 132.0850
" />
<path d="M23.8459 132.2755
L23.9411 132.1802
" />
<path d="M23.9411 132.1802
L24.1316 132.0850
" />
<path d="M24.1316 132.0850
L24.4173 132.0850
" />
<path d="M24.4173 132.0850
L24.6078 132.1802
" />
<path d="M24.6078 132.1802
L24.7030 132.3707
" />
<path d="M24.7030 132.3707
L24.7030 133.4183
" />
<path d="M24.7030 132.3707
L24.7983 132.1802
" />
<path d="M24.7983 132.1802
L24.9887 132.0850
" />
<path d="M24.9887 132.0850
L25.2744 132.0850
" />
<path d="M25.2744 132.0850
L25.4649 132.1802
" />
<path d="M25.4649 132.1802
L25.5602 132.3707
" />
<path d="M25.5602 132.3707
L25.5602 133.4183
" />
<path d="M29.4649 131.3231
L27.7506 133.8945
" />
<path d="M32.0364 131.4183
L32.2268 131.4183
" />
<path d="M32.2268 131.4183
L32.4173 131.5135
" />
<path d="M32.4173 131.5135
L32.5125 131.6088
" />
<path d="M32.5125 131.6088
L32.6078 131.7993
" />
<path d="M32.6078 131.7993
L32.7030 132.1802
" />
<path d="M32.7030 132.1802
L32.7030 132.6564
" />
<path d="M32.7030 132.6564
L32.6078 133.0374
" />
<path d="M32.6078 133.0374
L32.5125 133.2278
" />
<path d="M32.5125 133.2278
L32.4173 133.3231
" />
<path d="M32.4173 133.3231
L32.2268 133.4183
" />
<path d="M32.2268 133.4183
L32.0364 133.4183
" />
<path d="M32.0364 133.4183
L31.8459 133.3231
" />
<path d="M31.8459 133.3231
L31.7506 133.2278
" />
<path d="M31.7506 133.2278
L31.6554 133.0374
" />
<path d="M31.6554 133.0374
L31.5602 132.6564
" />
<path d="M31.5602 132.6564
L31.5602 132.1802
" />
<path d="M31.5602 132.1802
L31.6554 131.7993
" />
<path d="M31.6554 131.7993
L31.7506 131.6088
" />
<path d="M31.7506 131.6088
L31.8459 131.5135
" />
<path d="M31.8459 131.5135
L32.0364 131.4183
" />
<path d="M33.5602 133.2278
L33.6554 133.3231
" />
<path d="M33.6554 133.3231
L33.5602 133.4183
" />
<path d="M33.5602 133.4183
L33.4649 133.3231
" />
<path d="M33.4649 133.3231
L33.5602 133.2278
" />
<path d="M33.5602 133.2278
L33.5602 133.4183
" />
<path d="M34.8935 131.4183
L35.0840 131.4183
" />
<path d="M35.0840 131.4183
L35.2745 131.5135
" />
<path d="M35.2745 131.5135
L35.3697 131.6088
" />
<path d="M35.3697 131.6088
L35.4649 131.7993
" />
<path d="M35.4649 131.7993
L35.5602 132.1802
" />
<path d="M35.5602 132.1802
L35.5602 132.6564
" />
<path d="M35.5602 132.6564
L35.4649 133.0374
" />
<path d="M35.4649 133.0374
L35.3697 133.2278
" />
<path d="M35.3697 133.2278
L35.2745 133.3231
" />
<path d="M35.2745 133.3231
L35.0840 133.4183
" />
<path d="M35.0840 133.4183
L34.8935 133.4183
" />
<path d="M34.8935 133.4183
L34.7030 133.3231
" />
<path d="M34.7030 133.3231
L34.6078 133.2278
" />
<path d="M34.6078 133.2278
L34.5125 133.0374
" />
<path d="M34.5125 133.0374
L34.4173 132.6564
" />
<path d="M34.4173 132.6564
L34.4173 132.1802
" />
<path d="M34.4173 132.1802
L34.5125 131.7993
" />
<path d="M34.5125 131.7993
L34.6078 131.6088
" />
<path d="M34.6078 131.6088
L34.7030 131.5135
" />
<path d="M34.7030 131.5135
L34.8935 131.4183
" />
<path d="M36.2268 131.4183
L37.5602 131.4183
" />
<path d="M37.5602 131.4183
L36.7030 133.4183
" />
<path d="M38.6078 132.2755
L38.4173 132.1802
" />
<path d="M38.4173 132.1802
L38.3221 132.0850
" />
<path d="M38.3221 132.0850
L38.2268 131.8945
" />
<path d="M38.2268 131.8945
L38.2268 131.7993
" />
<path d="M38.2268 131.7993
L38.3221 131.6088
" />
<path d="M38.3221 131.6088
L38.4173 131.5135
" />
<path d="M38.4173 131.5135
L38.6078 131.4183
" />
<path d="M38.6078 131.4183
L38.9887 131.4183
" />
<path d="M38.9887 131.4183
L39.1792 131.5135
" />
<path d="M39.1792 131.5135
L39.2745 131.6088
" />
<path d="M39.2745 131.6088
L39.3697 131.7993
" />
<path d="M39.3697 131.7993
L39.3697 131.8945
" />
<path d="M39.3697 131.8945
L39.2745 132.0850
" />
<path d="M39.2745 132.0850
L39.1792 132.1802
" />
<path d="M39.1792 132.1802
L38.9887 132.2755
" />
<path d="M38.9887 132.2755
L38.6078 132.2755
" />
<path d="M38.6078 132.2755
L38.4173 132.3707
" />
<path d="M38.4173 132.3707
L38.3221 132.4659
" />
<path d="M38.3221 132.4659
L38.2268 132.6564
" />
<path d="M38.2268 132.6564
L38.2268 133.0374
" />
<path d="M38.2268 133.0374
L38.3221 133.2278
" />
<path d="M38.3221 133.2278
L38.4173 133.3231
" />
<path d="M38.4173 133.3231
L38.6078 133.4183
" />
<path d="M38.6078 133.4183
L38.9887 133.4183
" />
<path d="M38.9887 133.4183
L39.1792 133.3231
" />
<path d="M39.1792 133.3231
L39.2745 133.2278
" />
<path d="M39.2745 133.2278
L39.3697 133.0374
" />
<path d="M39.3697 133.0374
L39.3697 132.6564
" />
<path d="M39.3697 132.6564
L39.2745 132.4659
" />
<path d="M39.2745 132.4659
L39.1792 132.3707
" />
<path d="M39.1792 132.3707
L38.9887 132.2755
" />
<path d="M40.0364 131.4183
L41.3697 131.4183
" />
<path d="M41.3697 131.4183
L40.5126 133.4183
" />
<path d="M42.0364 131.4183
L42.0364 131.7993
" />
<path d="M42.7983 131.4183
L42.7983 131.7993
" />
<path d="M45.7507 134.1802
L45.6554 134.0850
" />
<path d="M45.6554 134.0850
L45.4649 133.7993
" />
<path d="M45.4649 133.7993
L45.3697 133.6088
" />
<path d="M45.3697 133.6088
L45.2745 133.3231
" />
<path d="M45.2745 133.3231
L45.1792 132.8469
" />
<path d="M45.1792 132.8469
L45.1792 132.4659
" />
<path d="M45.1792 132.4659
L45.2745 131.9897
" />
<path d="M45.2745 131.9897
L45.3697 131.7040
" />
<path d="M45.3697 131.7040
L45.4649 131.5135
" />
<path d="M45.4649 131.5135
L45.6554 131.2278
" />
<path d="M45.6554 131.2278
L45.7507 131.1326
" />
<path d="M46.7983 132.2755
L46.6078 132.1802
" />
<path d="M46.6078 132.1802
L46.5126 132.0850
" />
<path d="M46.5126 132.0850
L46.4173 131.8945
" />
<path d="M46.4173 131.8945
L46.4173 131.7993
" />
<path d="M46.4173 131.7993
L46.5126 131.6088
" />
<path d="M46.5126 131.6088
L46.6078 131.5135
" />
<path d="M46.6078 131.5135
L46.7983 131.4183
" />
<path d="M46.7983 131.4183
L47.1792 131.4183
" />
<path d="M47.1792 131.4183
L47.3697 131.5135
" />
<path d="M47.3697 131.5135
L47.4649 131.6088
" />
<path d="M47.4649 131.6088
L47.5602 131.7993
" />
<path d="M47.5602 131.7993
L47.5602 131.8945
" />
<path d="M47.5602 131.8945
L47.4649 132.0850
" />
<path d="M47.4649 132.0850
L47.3697 132.1802
" />
<path d="M47.3697 132.1802
L47.1792 132.2755
" />
<path d="M47.1792 132.2755
L46.7983 132.2755
" />
<path d="M46.7983 132.2755
L46.6078 132.3707
" />
<path d="M46.6078 132.3707
L46.5126 132.4659
" />
<path d="M46.5126 132.4659
L46.4173 132.6564
" />
<path d="M46.4173 132.6564
L46.4173 133.0374
" />
<path d="M46.4173 133.0374
L46.5126 133.2278
" />
<path d="M46.5126 133.2278
L46.6078 133.3231
" />
<path d="M46.6078 133.3231
L46.7983 133.4183
" />
<path d="M46.7983 133.4183
L47.1792 133.4183
" />
<path d="M47.1792 133.4183
L47.3697 133.3231
" />
<path d="M47.3697 133.3231
L47.4649 133.2278
" />
<path d="M47.4649 133.2278
L47.5602 133.0374
" />
<path d="M47.5602 133.0374
L47.5602 132.6564
" />
<path d="M47.5602 132.6564
L47.4649 132.4659
" />
<path d="M47.4649 132.4659
L47.3697 132.3707
" />
<path d="M47.3697 132.3707
L47.1792 132.2755
" />
<path d="M49.9411 133.4183
L49.9411 131.4183
" />
<path d="M50.7983 133.4183
L50.7983 132.3707
" />
<path d="M50.7983 132.3707
L50.7030 132.1802
" />
<path d="M50.7030 132.1802
L50.5126 132.0850
" />
<path d="M50.5126 132.0850
L50.2269 132.0850
" />
<path d="M50.2269 132.0850
L50.0364 132.1802
" />
<path d="M50.0364 132.1802
L49.9411 132.2755
" />
<path d="M52.0364 133.4183
L51.8459 133.3231
" />
<path d="M51.8459 133.3231
L51.7507 133.2278
" />
<path d="M51.7507 133.2278
L51.6554 133.0374
" />
<path d="M51.6554 133.0374
L51.6554 132.4659
" />
<path d="M51.6554 132.4659
L51.7507 132.2755
" />
<path d="M51.7507 132.2755
L51.8459 132.1802
" />
<path d="M51.8459 132.1802
L52.0364 132.0850
" />
<path d="M52.0364 132.0850
L52.3221 132.0850
" />
<path d="M52.3221 132.0850
L52.5126 132.1802
" />
<path d="M52.5126 132.1802
L52.6078 132.2755
" />
<path d="M52.6078 132.2755
L52.7030 132.4659
" />
<path d="M52.7030 132.4659
L52.7030 133.0374
" />
<path d="M52.7030 133.0374
L52.6078 133.2278
" />
<path d="M52.6078 133.2278
L52.5126 133.3231
" />
<path d="M52.5126 133.3231
L52.3221 133.4183
" />
<path d="M52.3221 133.4183
L52.0364 133.4183
" />
<path d="M53.8459 133.4183
L53.6554 133.3231
" />
<path d="M53.6554 133.3231
L53.5602 133.1326
" />
<path d="M53.5602 133.1326
L53.5602 131.4183
" />
<path d="M55.3697 133.3231
L55.1792 133.4183
" />
<path d="M55.1792 133.4183
L54.7983 133.4183
" />
<path d="M54.7983 133.4183
L54.6078 133.3231
" />
<path d="M54.6078 133.3231
L54.5126 133.1326
" />
<path d="M54.5126 133.1326
L54.5126 132.3707
" />
<path d="M54.5126 132.3707
L54.6078 132.1802
" />
<path d="M54.6078 132.1802
L54.7983 132.0850
" />
<path d="M54.7983 132.0850
L55.1792 132.0850
" />
<path d="M55.1792 132.0850
L55.3697 132.1802
" />
<path d="M55.3697 132.1802
L55.4649 132.3707
" />
<path d="M55.4649 132.3707
L55.4649 132.5612
" />
<path d="M55.4649 132.5612
L54.5126 132.7516
" />
<path d="M56.2269 133.3231
L56.4173 133.4183
" />
<path d="M56.4173 133.4183
L56.7983 133.4183
" />
<path d="M56.7983 133.4183
L56.9888 133.3231
" />
<path d="M56.9888 133.3231
L57.0840 133.1326
" />
<path d="M57.0840 133.1326
L57.0840 133.0374
" />
<path d="M57.0840 133.0374
L56.9888 132.8469
" />
<path d="M56.9888 132.8469
L56.7983 132.7516
" />
<path d="M56.7983 132.7516
L56.5126 132.7516
" />
<path d="M56.5126 132.7516
L56.3221 132.6564
" />
<path d="M56.3221 132.6564
L56.2269 132.4659
" />
<path d="M56.2269 132.4659
L56.2269 132.3707
" />
<path d="M56.2269 132.3707
L56.3221 132.1802
" />
<path d="M56.3221 132.1802
L56.5126 132.0850
" />
<path d="M56.5126 132.0850
L56.7983 132.0850
" />
<path d="M56.7983 132.0850
L56.9888 132.1802
" />
<path d="M57.7507 134.1802
L57.8459 134.0850
" />
<path d="M57.8459 134.0850
L58.0364 133.7993
" />
<path d="M58.0364 133.7993
L58.1316 133.6088
" />
<path d="M58.1316 133.6088
L58.2269 133.3231
" />
<path d="M58.2269 133.3231
L58.3221 132.8469
" />
<path d="M58.3221 132.8469
L58.3221 132.4659
" />
<path d="M58.3221 132.4659
L58.2269 131.9897
" />
<path d="M58.2269 131.9897
L58.1316 131.7040
" />
<path d="M58.1316 131.7040
L58.0364 131.5135
" />
<path d="M58.0364 131.5135
L57.8459 131.2278
" />
<path d="M57.8459 131.2278
L57.7507 131.1326
" />
</g></g> 
</svg>
