%TF.GenerationSoftware,KiCad,Pcbnew,7.0.8*%
%TF.CreationDate,2023-12-10T13:03:46-06:00*%
%TF.ProjectId,sadcatz40,73616463-6174-47a3-9430-2e6b69636164,rev?*%
%TF.SameCoordinates,Original*%
%TF.FileFunction,Copper,L1,Top*%
%TF.FilePolarity,Positive*%
%FSLAX46Y46*%
G04 Gerber Fmt 4.6, Leading zero omitted, Abs format (unit mm)*
G04 Created by KiCad (PCBNEW 7.0.8) date 2023-12-10 13:03:46*
%MOMM*%
%LPD*%
G01*
G04 APERTURE LIST*
%TA.AperFunction,ComponentPad*%
%ADD10C,2.500000*%
%TD*%
%TA.AperFunction,WasherPad*%
%ADD11C,0.600000*%
%TD*%
%TA.AperFunction,ComponentPad*%
%ADD12O,1.200000X2.300000*%
%TD*%
%TA.AperFunction,ViaPad*%
%ADD13C,0.800000*%
%TD*%
%TA.AperFunction,Conductor*%
%ADD14C,0.250000*%
%TD*%
%TA.AperFunction,Conductor*%
%ADD15C,0.200000*%
%TD*%
G04 APERTURE END LIST*
D10*
%TO.P,H3,1,1*%
%TO.N,GND*%
X46563844Y-64065990D03*
%TD*%
%TO.P,H6,1,1*%
%TO.N,GND*%
X136236870Y-44369835D03*
%TD*%
%TO.P,H2,1,1*%
%TO.N,GND*%
X79601884Y-49461072D03*
%TD*%
%TO.P,H1,1,1*%
%TO.N,GND*%
X50057653Y-44251630D03*
%TD*%
D11*
%TO.P,J1,*%
%TO.N,*%
X89354266Y-39184166D03*
X96854266Y-39184166D03*
D12*
%TO.P,J1,S1,Shield*%
%TO.N,GND*%
X87529266Y-39104166D03*
X98679266Y-39104166D03*
X87529266Y-34504166D03*
X98679266Y-34504166D03*
%TD*%
D10*
%TO.P,H4,1,1*%
%TO.N,GND*%
X76108079Y-69275439D03*
%TD*%
%TO.P,H7,1,1*%
%TO.N,GND*%
X110165600Y-69275434D03*
%TD*%
%TO.P,H8,1,1*%
%TO.N,GND*%
X139709834Y-64065989D03*
%TD*%
%TO.P,H5,1,1*%
%TO.N,GND*%
X106692635Y-49579281D03*
%TD*%
D13*
%TO.N,GND*%
X90525908Y-44584971D03*
X86672334Y-67127150D03*
X93937597Y-63242004D03*
X86672333Y-71627154D03*
X81762224Y-43016063D03*
X96303370Y-44012040D03*
X92270937Y-64908672D03*
X93937597Y-64908674D03*
X92379764Y-63242005D03*
%TO.N,NRST*%
X99822645Y-70690287D03*
X93104267Y-73242001D03*
%TO.N,+5V*%
X95729559Y-50184902D03*
X92853856Y-45626423D03*
X90604306Y-54275366D03*
%TO.N,ROW1*%
X136149853Y-41912417D03*
X84183082Y-47087907D03*
X60585337Y-43141841D03*
X95304304Y-46975363D03*
X87689551Y-59331662D03*
X107426305Y-46977153D03*
X89789158Y-48976266D03*
X144501288Y-41286022D03*
X50737260Y-41405359D03*
X80281484Y-46614801D03*
X116453706Y-45385379D03*
X90319709Y-46995465D03*
X70433412Y-44878322D03*
X126301780Y-43648898D03*
X85521012Y-47798532D03*
X97888972Y-47013982D03*
X87408383Y-55477150D03*
%TO.N,ROW2*%
X48856075Y-52074106D03*
X136981698Y-52766191D03*
X58704145Y-53810586D03*
X86607022Y-58730617D03*
X146237769Y-51134096D03*
X78400296Y-57283547D03*
X128038261Y-53496972D03*
X68552224Y-55547069D03*
X107437462Y-57975637D03*
X91477388Y-62812216D03*
X118190187Y-55233453D03*
%TO.N,ROW3*%
X77005794Y-66738856D03*
X119637255Y-63440181D03*
X90547334Y-63177154D03*
X119926668Y-65081526D03*
X129774742Y-63345045D03*
X147974250Y-60982169D03*
X67153795Y-65227142D03*
X48278319Y-61898888D03*
X85063888Y-69231362D03*
X138691944Y-62465477D03*
X109147707Y-67674919D03*
X57305721Y-63490661D03*
X81665329Y-67560459D03*
%TO.N,ROW4*%
X141359297Y-71456638D03*
X111815076Y-76666081D03*
X55569241Y-73338735D03*
X65417310Y-75075214D03*
X75265386Y-76811696D03*
X110572291Y-77660453D03*
X121663149Y-74929600D03*
X85872337Y-61677150D03*
X131511223Y-73193119D03*
X149710731Y-70830243D03*
X45721165Y-71602254D03*
X85572300Y-77660451D03*
%TO.N,VBUS*%
X97273766Y-46226246D03*
X90704303Y-43575366D03*
X96984354Y-47867593D03*
X95404304Y-43575367D03*
%TO.N,BOOT0*%
X95579862Y-62464583D03*
X96655774Y-71793509D03*
%TO.N,COL1*%
X40342978Y-59034901D03*
X84491280Y-66680798D03*
%TO.N,COL2*%
X101621576Y-67463020D03*
X141807266Y-58684821D03*
%TO.N,COL3*%
X48743986Y-68978111D03*
X81434068Y-73049877D03*
%TO.N,COL4*%
X101857918Y-68803381D03*
X133695671Y-70269376D03*
%TO.N,COL5*%
X58592062Y-70714594D03*
X84176529Y-71624924D03*
%TO.N,COL6*%
X102036152Y-69812042D03*
X123847593Y-72005858D03*
%TO.N,COL7*%
X82973700Y-74819918D03*
X68440141Y-72451075D03*
%TO.N,COL8*%
X113854810Y-72921667D03*
X103293236Y-74783957D03*
%TO.N,COL9*%
X82796236Y-75828630D03*
X77998805Y-75828902D03*
X87597336Y-70850836D03*
X86771435Y-72627152D03*
%TO.N,D_P*%
X89529302Y-51275364D03*
X94022742Y-48243469D03*
%TO.N,D_N*%
X88479302Y-51275368D03*
X92104304Y-48200865D03*
%TD*%
D14*
%TO.N,GND*%
X92379764Y-64799839D02*
X92270937Y-64908672D01*
X110165600Y-69275434D02*
X139709834Y-64065989D01*
X106692637Y-49579282D02*
X106692635Y-49579281D01*
X98679267Y-39104167D02*
X98679265Y-34504166D01*
X106692635Y-49579281D02*
X136236870Y-44369835D01*
X86672334Y-67127150D02*
X86672333Y-71627154D01*
X92270937Y-64908672D02*
X93937597Y-64908674D01*
X92379764Y-63242005D02*
X93937597Y-63242004D01*
X46563844Y-64065990D02*
X76108076Y-69275433D01*
X92379764Y-63242005D02*
X92379764Y-64799839D01*
X76108076Y-69275433D02*
X76108079Y-69275439D01*
X93937597Y-63242004D02*
X93937597Y-64908674D01*
X95730440Y-44584975D02*
X90525908Y-44584971D01*
X79601882Y-49461077D02*
X79601884Y-49461072D01*
X87529264Y-39104166D02*
X83617366Y-43016062D01*
X81762224Y-43016063D02*
X83244177Y-43277373D01*
X87529265Y-34504169D02*
X87529264Y-39104166D01*
X96303370Y-44012040D02*
X95730440Y-44584975D01*
X50057653Y-44251630D02*
X79601882Y-49461077D01*
X83244177Y-43277373D02*
X83617366Y-43016062D01*
%TO.N,NRST*%
X99822645Y-70690287D02*
X98784303Y-70690290D01*
X96232589Y-73242002D02*
X93104267Y-73242001D01*
X98784303Y-70690290D02*
X96232589Y-73242002D01*
%TO.N,+5V*%
X96070435Y-46805514D02*
X95581611Y-46107401D01*
X94694770Y-50184902D02*
X90604306Y-54275366D01*
X95850899Y-48050579D02*
X95525855Y-49893986D01*
X95850899Y-48050579D02*
X96070435Y-46805514D01*
X95525855Y-49893986D02*
X95729559Y-50184902D01*
X95729559Y-50184902D02*
X94694770Y-50184902D01*
X95581611Y-46107401D02*
X92853856Y-45626423D01*
%TO.N,ROW1*%
X97888972Y-47013982D02*
X105549755Y-45663179D01*
X80281484Y-46614801D02*
X80526598Y-46443171D01*
X107426305Y-46977153D02*
X116453706Y-45385379D01*
X143535908Y-40610056D02*
X144501288Y-41286022D01*
X80526598Y-46443171D02*
X84183082Y-47087907D01*
X60585337Y-43141841D02*
X70433412Y-44878322D01*
X85860631Y-48283561D02*
X89789158Y-48976266D01*
X50737260Y-41405359D02*
X60585337Y-43141841D01*
X136149853Y-41912417D02*
X143535908Y-40610056D01*
X70433412Y-44878322D02*
X80281484Y-46614801D01*
X85521012Y-47798532D02*
X85860631Y-48283561D01*
X105549755Y-45663179D02*
X107426305Y-46977153D01*
X90339816Y-46975367D02*
X90319709Y-46995465D01*
X116453706Y-45385379D02*
X126301780Y-43648898D01*
X87689551Y-59331662D02*
X87689550Y-55869365D01*
X95304304Y-46975363D02*
X90339816Y-46975367D01*
X87689550Y-55869365D02*
X87472334Y-55652152D01*
X126301780Y-43648898D02*
X136149853Y-41912417D01*
%TO.N,ROW2*%
X136016318Y-52090225D02*
X136981698Y-52766191D01*
X103162870Y-61284653D02*
X105204129Y-58369434D01*
X107437462Y-57975637D02*
X117514221Y-56198832D01*
X105204129Y-58369434D02*
X107437462Y-57975637D01*
X86607022Y-58730617D02*
X78400296Y-57283547D01*
X58704145Y-53810586D02*
X48856075Y-52074106D01*
X93000024Y-61289582D02*
X103134905Y-61289584D01*
X78400296Y-57283547D02*
X68552224Y-55547069D01*
X117514221Y-56198832D02*
X118190187Y-55233453D01*
X128038261Y-53496972D02*
X136016318Y-52090225D01*
X91477388Y-62812216D02*
X93000024Y-61289582D01*
X68552224Y-55547069D02*
X58704145Y-53810586D01*
X136981698Y-52766191D02*
X146237769Y-51134096D01*
X103134905Y-61289584D02*
X103162870Y-61284653D01*
X118190187Y-55233453D02*
X128038261Y-53496972D01*
%TO.N,ROW3*%
X147799227Y-60859617D02*
X147974250Y-60982169D01*
X119926668Y-65081526D02*
X129774742Y-63345045D01*
X100399324Y-66258742D02*
X100126786Y-64713098D01*
X76748578Y-66918960D02*
X77005794Y-66738856D01*
X94854859Y-64372716D02*
X94854861Y-62164278D01*
X48278319Y-61898888D02*
X57305721Y-63490661D01*
X90547334Y-63177154D02*
X90547333Y-64210381D01*
X96115815Y-65633669D02*
X94854859Y-64372716D01*
X94854861Y-62164278D02*
X95279559Y-61739582D01*
X81665329Y-67560459D02*
X84207820Y-68008769D01*
X109147707Y-67674919D02*
X119373258Y-65871878D01*
X84207820Y-68008769D02*
X85063888Y-69231362D01*
X119373258Y-65871878D02*
X119926668Y-65081526D01*
X137901587Y-61912063D02*
X138691944Y-62465477D01*
X118982853Y-62981964D02*
X119637255Y-63440181D01*
X100399324Y-66258742D02*
X118982853Y-62981964D01*
X67153795Y-65227142D02*
X76748578Y-66918960D01*
X95279559Y-61739582D02*
X95880164Y-61739581D01*
X57305721Y-63490661D02*
X67153795Y-65227142D01*
X129774742Y-63345045D02*
X137901587Y-61912063D01*
X77005794Y-66738856D02*
X81665329Y-67560459D01*
X138691944Y-62465477D02*
X147799227Y-60859617D01*
X91970629Y-65633672D02*
X96115815Y-65633669D01*
X100126786Y-64713098D02*
X95880164Y-61739581D01*
X90547333Y-64210381D02*
X91970629Y-65633672D01*
%TO.N,ROW4*%
X85872340Y-77360417D02*
X85572300Y-77660451D01*
X85872337Y-61677150D02*
X85872340Y-77360417D01*
X55569241Y-73338735D02*
X45721165Y-71602254D01*
X121663149Y-74929600D02*
X131511223Y-73193119D01*
X111815076Y-76666081D02*
X121663149Y-74929600D01*
X148745352Y-70154277D02*
X149710731Y-70830243D01*
X141359297Y-71456638D02*
X148745352Y-70154277D01*
X75265386Y-76811696D02*
X84467236Y-78434231D01*
X75265386Y-76811696D02*
X65417310Y-75075214D01*
X65417310Y-75075214D02*
X55569241Y-73338735D01*
X84467236Y-78434231D02*
X85572300Y-77660451D01*
X131511223Y-73193119D02*
X141359297Y-71456638D01*
X85572300Y-77660451D02*
X110572291Y-77660453D01*
%TO.N,VBUS*%
X95329667Y-43650005D02*
X95404304Y-43575367D01*
X93104269Y-43650003D02*
X90778947Y-43650007D01*
X97273766Y-46226246D02*
X96984354Y-47867593D01*
X93104269Y-43650003D02*
X95329667Y-43650005D01*
X90604302Y-43475366D02*
X90704303Y-43575366D01*
X90778947Y-43650007D02*
X90704303Y-43575366D01*
%TO.N,BOOT0*%
X96655774Y-71793509D02*
X96655778Y-63540495D01*
X96655778Y-63540495D02*
X95579862Y-62464583D01*
%TO.N,COL1*%
X84491280Y-66680798D02*
X40501146Y-58924151D01*
X40501146Y-58924151D02*
X40342978Y-59034901D01*
%TO.N,COL2*%
X101621576Y-67463020D02*
X140455334Y-60615580D01*
X140455334Y-60615580D02*
X141807266Y-58684821D01*
%TO.N,COL3*%
X81434068Y-73049877D02*
X50674746Y-67626180D01*
X50674746Y-67626180D02*
X48743986Y-68978111D01*
%TO.N,COL4*%
X133107580Y-71109257D02*
X133695671Y-70269376D01*
X101857918Y-68803381D02*
X101270130Y-69642829D01*
X101374313Y-70233680D02*
X105986165Y-73462933D01*
X120907105Y-70831968D02*
X123677745Y-72771991D01*
X123677745Y-72771991D02*
X133107580Y-71109257D01*
X101270130Y-69642829D02*
X101374313Y-70233680D01*
X105986165Y-73462933D02*
X120907105Y-70831968D01*
%TO.N,COL5*%
X83051255Y-74097406D02*
X59653060Y-69971673D01*
X84176529Y-71624924D02*
X83390128Y-72175568D01*
X59653060Y-69971673D02*
X58592062Y-70714594D01*
X83390128Y-72175568D02*
X83051255Y-74097406D01*
%TO.N,COL6*%
X102036152Y-69812042D02*
X104883877Y-71806041D01*
X104883877Y-71806041D02*
X119804818Y-69175077D01*
X119804818Y-69175077D02*
X123847593Y-72005858D01*
%TO.N,COL7*%
X68661256Y-72296248D02*
X68440141Y-72451075D01*
X82973700Y-74819918D02*
X68661256Y-72296248D01*
%TO.N,COL8*%
X103293236Y-74783957D02*
X113854810Y-72921667D01*
%TO.N,COL9*%
X87597337Y-71801251D02*
X86771435Y-72627152D01*
X82796236Y-75828630D02*
X81830855Y-76504596D01*
X87597336Y-70850836D02*
X87597337Y-71801251D01*
X81830855Y-76504596D02*
X77998805Y-75828902D01*
D15*
%TO.N,D_P*%
X89529302Y-51275364D02*
X89529304Y-50861761D01*
X89529304Y-50861761D02*
X91490698Y-48900369D01*
X93854268Y-48900369D02*
X93896889Y-48900370D01*
X94022743Y-48774517D02*
X94022742Y-48243469D01*
X93896889Y-48900370D02*
X94022743Y-48774517D01*
X91490698Y-48900369D02*
X93854268Y-48900369D01*
%TO.N,D_N*%
X91304304Y-48450360D02*
X91553802Y-48200871D01*
X88479302Y-51275368D02*
X91304304Y-48450360D01*
X91553802Y-48200871D02*
X92104304Y-48200865D01*
%TD*%
M02*
